<svg width="150" height="144" viewBox="0 0 150 144" fill="none" xmlns="http://www.w3.org/2000/svg">
<mask id="mask0_11_10321" style="mask-type:luminance" maskUnits="userSpaceOnUse" x="0" y="0" width="150" height="144">
<path d="M149.333 0H0V144H149.333V0Z" fill="white"/>
</mask>
<g mask="url(#mask0_11_10321)">
<path d="M19.8906 126.042V127.771" stroke="black" stroke-width="0.394624" stroke-miterlimit="10" stroke-linejoin="round"/>
<path d="M19.0027 132.538C19.0027 132.142 18.9818 131.683 18.7735 131.288C18.5652 130.933 18.2318 130.808 17.9818 130.808C17.6902 130.808 17.3568 130.933 17.1485 131.371C16.9818 131.746 16.961 132.142 16.961 132.538C16.961 132.933 16.9818 133.288 17.1277 133.642C17.3152 134.121 17.6902 134.246 17.9818 134.246C18.336 134.246 18.6485 134.058 18.7943 133.704C18.9402 133.392 19.0027 133.058 19.0027 132.538ZM17.9818 133.954C17.7318 133.954 17.5235 133.767 17.4193 133.413C17.3568 133.121 17.336 132.871 17.336 132.475C17.336 132.163 17.336 131.871 17.4193 131.6C17.461 131.517 17.586 131.1 17.9818 131.1C18.3568 131.1 18.4818 131.475 18.5235 131.579C18.6068 131.85 18.6068 132.183 18.6068 132.475C18.6068 132.808 18.6068 133.121 18.5235 133.433C18.3985 133.871 18.1485 133.954 17.9818 133.954Z" fill="black"/>
<path d="M20.0849 133.725H19.689V134.142H20.0849V133.725Z" fill="black"/>
<path d="M22.8211 132.538C22.8211 132.142 22.8003 131.683 22.5919 131.288C22.3836 130.933 22.0503 130.808 21.8003 130.808C21.5086 130.808 21.1753 130.933 20.9669 131.371C20.8003 131.746 20.7794 132.142 20.7794 132.538C20.7794 132.933 20.8003 133.288 20.9461 133.642C21.1336 134.121 21.5086 134.246 21.8003 134.246C22.1544 134.246 22.4669 134.058 22.6128 133.704C22.7586 133.392 22.8211 133.058 22.8211 132.538ZM21.8003 133.954C21.5503 133.954 21.3419 133.767 21.2378 133.413C21.1753 133.121 21.1544 132.871 21.1544 132.475C21.1544 132.163 21.1544 131.871 21.2378 131.6C21.2794 131.517 21.4044 131.1 21.8003 131.1C22.1753 131.1 22.3003 131.475 22.3419 131.579C22.4253 131.85 22.4253 132.183 22.4253 132.475C22.4253 132.808 22.4253 133.121 22.3419 133.433C22.2169 133.871 21.9669 133.954 21.8003 133.954Z" fill="black"/>
<path d="M44.5 126.042V127.771" stroke="black" stroke-width="0.394624" stroke-miterlimit="10" stroke-linejoin="round"/>
<path d="M43.6123 132.538C43.6123 132.142 43.5915 131.683 43.3831 131.288C43.1748 130.933 42.8415 130.808 42.5915 130.808C42.2998 130.808 41.9665 130.933 41.7581 131.371C41.5915 131.746 41.5706 132.142 41.5706 132.538C41.5706 132.933 41.5915 133.288 41.7373 133.642C41.9248 134.121 42.2998 134.246 42.5915 134.246C42.9456 134.246 43.2581 134.058 43.404 133.704C43.5498 133.392 43.6123 133.058 43.6123 132.538ZM42.5915 133.954C42.3415 133.954 42.1331 133.767 42.029 133.413C41.9665 133.121 41.9456 132.871 41.9456 132.475C41.9456 132.163 41.9456 131.871 42.029 131.6C42.0706 131.517 42.1956 131.1 42.5915 131.1C42.9665 131.1 43.0915 131.475 43.1331 131.579C43.2165 131.85 43.2165 132.183 43.2165 132.475C43.2165 132.808 43.2165 133.121 43.1331 133.433C43.0081 133.871 42.7581 133.954 42.5915 133.954Z" fill="black"/>
<path d="M44.6945 133.725H44.2986V134.142H44.6945V133.725Z" fill="black"/>
<path d="M46.0349 133.225L45.4308 133.829V134.142H47.3891V133.788H46.4933C46.4308 133.788 46.3683 133.788 46.3266 133.788H45.7849C45.9308 133.663 46.3058 133.288 46.4724 133.142C46.5558 133.058 46.8058 132.85 46.9099 132.767C47.1183 132.538 47.3891 132.288 47.3891 131.871C47.3891 131.308 46.9933 130.808 46.3474 130.808C45.7849 130.808 45.5141 131.183 45.3891 131.621C45.4516 131.704 45.4724 131.725 45.4724 131.746C45.4933 131.746 45.5349 131.808 45.5974 131.892C45.6808 131.517 45.8266 131.121 46.2641 131.121C46.7433 131.121 46.9933 131.496 46.9933 131.871C46.9933 132.288 46.7016 132.579 46.4099 132.871L46.0349 133.225Z" fill="black"/>
<path d="M69.1094 126.042V127.771" stroke="black" stroke-width="0.394624" stroke-miterlimit="10" stroke-linejoin="round"/>
<path d="M68.2219 132.538C68.2219 132.142 68.2011 131.683 67.9927 131.288C67.7844 130.933 67.4511 130.808 67.2011 130.808C66.9094 130.808 66.5761 130.933 66.3677 131.371C66.2011 131.746 66.1802 132.142 66.1802 132.538C66.1802 132.933 66.2011 133.288 66.3469 133.642C66.5344 134.121 66.9094 134.246 67.2011 134.246C67.5552 134.246 67.8677 134.058 68.0136 133.704C68.1594 133.392 68.2219 133.058 68.2219 132.538ZM67.2011 133.954C66.9511 133.954 66.7427 133.767 66.6386 133.413C66.5761 133.121 66.5552 132.871 66.5552 132.475C66.5552 132.163 66.5552 131.871 66.6386 131.6C66.6802 131.517 66.8052 131.1 67.2011 131.1C67.5761 131.1 67.7011 131.475 67.7427 131.579C67.8261 131.85 67.8261 132.183 67.8261 132.475C67.8261 132.808 67.8261 133.121 67.7427 133.433C67.6177 133.871 67.3677 133.954 67.2011 133.954Z" fill="black"/>
<path d="M69.3042 133.725H68.9083V134.142H69.3042V133.725Z" fill="black"/>
<path d="M71.6237 133.308H72.1029V132.996H71.6237V130.913H71.1654L69.9362 132.996V133.308H71.2279V134.142H71.6237V133.308ZM70.3112 132.996C70.5612 132.579 71.2696 131.413 71.2696 131.142V132.996H70.3112Z" fill="black"/>
<path d="M93.7188 126.042V127.771" stroke="black" stroke-width="0.394624" stroke-miterlimit="10" stroke-linejoin="round"/>
<path d="M92.8315 132.538C92.8315 132.142 92.8107 131.683 92.6024 131.288C92.394 130.933 92.0607 130.808 91.8107 130.808C91.519 130.808 91.1857 130.933 90.9774 131.371C90.8107 131.746 90.7899 132.142 90.7899 132.538C90.7899 132.933 90.8107 133.288 90.9565 133.642C91.144 134.121 91.519 134.246 91.8107 134.246C92.1649 134.246 92.4774 134.058 92.6232 133.704C92.769 133.392 92.8315 133.058 92.8315 132.538ZM91.8107 133.954C91.5607 133.954 91.3524 133.767 91.2482 133.413C91.1857 133.121 91.1649 132.871 91.1649 132.475C91.1649 132.163 91.1649 131.871 91.2482 131.6C91.2899 131.517 91.4149 131.1 91.8107 131.1C92.1857 131.1 92.3107 131.475 92.3524 131.579C92.4357 131.85 92.4357 132.183 92.4357 132.475C92.4357 132.808 92.4357 133.121 92.3524 133.433C92.2274 133.871 91.9774 133.954 91.8107 133.954Z" fill="black"/>
<path d="M93.9138 133.725H93.5179V134.142H93.9138V133.725Z" fill="black"/>
<path d="M96.4417 130.913C96.1917 130.808 95.9833 130.808 95.9208 130.808C95.2333 130.808 94.6083 131.496 94.6083 132.558C94.6083 133.954 95.2125 134.246 95.6292 134.246C95.9208 134.246 96.15 134.142 96.3375 133.913C96.5458 133.663 96.65 133.433 96.65 133.058C96.65 132.413 96.3167 131.871 95.8583 131.871C95.6917 131.871 95.3167 131.913 95.025 132.288C95.0875 131.496 95.4625 131.1 95.9208 131.1C96.1083 131.1 96.275 131.121 96.4417 131.204V130.913ZM95.025 133.058C95.025 132.996 95.025 132.996 95.025 132.933C95.025 132.558 95.2542 132.163 95.65 132.163C95.9 132.163 96.025 132.288 96.1292 132.475C96.2333 132.663 96.2333 132.829 96.2333 133.058C96.2333 133.225 96.2333 133.433 96.1292 133.642C96.0458 133.788 95.9208 133.954 95.6292 133.954C95.1083 133.954 95.0458 133.225 95.025 133.058Z" fill="black"/>
<path d="M118.333 126.042V127.771" stroke="black" stroke-width="0.394624" stroke-miterlimit="10" stroke-linejoin="round"/>
<path d="M117.441 132.538C117.441 132.142 117.42 131.683 117.212 131.288C117.004 130.933 116.67 130.808 116.42 130.808C116.129 130.808 115.795 130.933 115.587 131.371C115.42 131.746 115.399 132.142 115.399 132.538C115.399 132.933 115.42 133.288 115.566 133.642C115.754 134.121 116.129 134.246 116.42 134.246C116.774 134.246 117.087 134.058 117.233 133.704C117.379 133.392 117.441 133.058 117.441 132.538ZM116.42 133.954C116.17 133.954 115.962 133.767 115.858 133.413C115.795 133.121 115.774 132.871 115.774 132.475C115.774 132.163 115.774 131.871 115.858 131.6C115.899 131.517 116.024 131.1 116.42 131.1C116.795 131.1 116.92 131.475 116.962 131.579C117.045 131.85 117.045 132.183 117.045 132.475C117.045 132.808 117.045 133.121 116.962 133.433C116.837 133.871 116.587 133.954 116.42 133.954Z" fill="black"/>
<path d="M118.523 133.725H118.128V134.142H118.523V133.725Z" fill="black"/>
<path d="M120.593 132.392C121.03 132.246 121.197 131.933 121.197 131.663C121.197 131.204 120.76 130.808 120.239 130.808C119.697 130.808 119.28 131.225 119.28 131.663C119.28 131.933 119.447 132.246 119.885 132.392C119.53 132.517 119.218 132.829 119.218 133.267C119.218 133.788 119.676 134.246 120.239 134.246C120.822 134.246 121.26 133.788 121.26 133.267C121.26 132.808 120.905 132.517 120.593 132.392ZM120.239 132.246C119.864 132.246 119.635 132.017 119.635 131.663C119.635 131.329 119.864 131.1 120.239 131.1C120.614 131.1 120.843 131.35 120.843 131.663C120.843 132.017 120.593 132.246 120.239 132.246ZM120.239 133.954C119.905 133.954 119.614 133.704 119.614 133.246C119.614 132.746 119.968 132.558 120.239 132.558C120.51 132.558 120.864 132.746 120.864 133.246C120.864 133.725 120.551 133.954 120.239 133.954Z" fill="black"/>
<path d="M142.943 126.042V127.771" stroke="black" stroke-width="0.394624" stroke-miterlimit="10" stroke-linejoin="round"/>
<path d="M141.28 130.808H141.176C140.884 131.1 140.467 131.121 140.238 131.142V131.413C140.405 131.413 140.634 131.413 140.884 131.308V133.85H140.259V134.142H141.884V133.85H141.28V130.808Z" fill="black"/>
<path d="M143.133 133.725H142.737V134.142H143.133V133.725Z" fill="black"/>
<path d="M145.869 132.538C145.869 132.142 145.848 131.683 145.64 131.288C145.432 130.933 145.098 130.808 144.848 130.808C144.557 130.808 144.223 130.933 144.015 131.371C143.848 131.746 143.828 132.142 143.828 132.538C143.828 132.933 143.848 133.288 143.994 133.642C144.182 134.121 144.557 134.246 144.848 134.246C145.203 134.246 145.515 134.058 145.661 133.704C145.807 133.392 145.869 133.058 145.869 132.538ZM144.848 133.954C144.598 133.954 144.39 133.767 144.286 133.413C144.223 133.121 144.203 132.871 144.203 132.475C144.203 132.163 144.203 131.871 144.286 131.6C144.328 131.517 144.453 131.1 144.848 131.1C145.223 131.1 145.348 131.475 145.39 131.579C145.473 131.85 145.473 132.183 145.473 132.475C145.473 132.808 145.473 133.121 145.39 133.433C145.265 133.871 145.015 133.954 144.848 133.954Z" fill="black"/>
<path d="M80.8607 139.938L81.9857 138.876H81.569L80.7565 139.688L80.2357 138.876H79.8398L80.5273 139.938L79.3398 141.063H79.7357L80.6523 140.147L81.194 141.063H81.6107L80.8607 139.938Z" fill="black"/>
<path d="M83.4184 140.78C83.4392 140.717 83.4392 140.676 83.4392 140.592C83.4392 140.301 83.2309 140.238 83.0226 140.238C82.8351 140.238 82.6267 140.321 82.4392 140.488L82.5017 140.259H82.2309L81.8976 141.801H82.1892L82.3351 141.092C82.3976 140.863 82.4184 140.759 82.5226 140.634C82.6059 140.509 82.7101 140.467 82.8351 140.467C83.0017 140.467 83.1267 140.53 83.1267 140.696C83.1267 140.738 83.1267 140.759 83.1267 140.78L82.8976 141.801H83.2101L83.4184 140.78Z" fill="black"/>
<path d="M19.8906 126.042H18.1667" stroke="black" stroke-width="0.394624" stroke-miterlimit="10" stroke-linejoin="round"/>
<path d="M11.1767 126.145C11.1767 125.749 11.1559 125.291 10.9476 124.895C10.7392 124.541 10.4059 124.416 10.1559 124.416C9.86424 124.416 9.5309 124.541 9.32257 124.978C9.1559 125.353 9.13507 125.749 9.13507 126.145C9.13507 126.541 9.1559 126.895 9.30174 127.249C9.48924 127.728 9.86424 127.853 10.1559 127.853C10.5101 127.853 10.8226 127.666 10.9684 127.312C11.1142 126.999 11.1767 126.666 11.1767 126.145ZM10.1559 127.562C9.9059 127.562 9.69757 127.374 9.5934 127.02C9.5309 126.728 9.51007 126.478 9.51007 126.083C9.51007 125.77 9.51007 125.478 9.5934 125.208C9.63507 125.124 9.76007 124.708 10.1559 124.708C10.5309 124.708 10.6559 125.083 10.6976 125.187C10.7809 125.458 10.7809 125.791 10.7809 126.083C10.7809 126.416 10.7809 126.728 10.6976 127.041C10.5726 127.478 10.3226 127.562 10.1559 127.562Z" fill="black"/>
<path d="M12.2589 127.333H11.8631V127.749H12.2589V127.333Z" fill="black"/>
<path d="M14.9952 126.145C14.9952 125.749 14.9744 125.291 14.7661 124.895C14.5577 124.541 14.2244 124.416 13.9744 124.416C13.6827 124.416 13.3494 124.541 13.1411 124.978C12.9744 125.353 12.9536 125.749 12.9536 126.145C12.9536 126.541 12.9744 126.895 13.1202 127.249C13.3077 127.728 13.6827 127.853 13.9744 127.853C14.3286 127.853 14.6411 127.666 14.7869 127.312C14.9327 126.999 14.9952 126.666 14.9952 126.145ZM13.9744 127.562C13.7244 127.562 13.5161 127.374 13.4119 127.02C13.3494 126.728 13.3286 126.478 13.3286 126.083C13.3286 125.77 13.3286 125.478 13.4119 125.208C13.4536 125.124 13.5786 124.708 13.9744 124.708C14.3494 124.708 14.4744 125.083 14.5161 125.187C14.5994 125.458 14.5994 125.791 14.5994 126.083C14.5994 126.416 14.5994 126.728 14.5161 127.041C14.3911 127.478 14.1411 127.562 13.9744 127.562Z" fill="black"/>
<path d="M19.8906 101.432H18.1667" stroke="black" stroke-width="0.394624" stroke-miterlimit="10" stroke-linejoin="round"/>
<path d="M11.1767 101.535C11.1767 101.14 11.1559 100.681 10.9476 100.285C10.7392 99.9312 10.4059 99.8062 10.1559 99.8062C9.86424 99.8062 9.5309 99.9312 9.32257 100.369C9.1559 100.744 9.13507 101.14 9.13507 101.535C9.13507 101.931 9.1559 102.285 9.30174 102.64C9.48924 103.119 9.86424 103.244 10.1559 103.244C10.5101 103.244 10.8226 103.056 10.9684 102.702C11.1142 102.39 11.1767 102.056 11.1767 101.535ZM10.1559 102.952C9.9059 102.952 9.69757 102.765 9.5934 102.41C9.5309 102.119 9.51007 101.869 9.51007 101.473C9.51007 101.16 9.51007 100.869 9.5934 100.598C9.63507 100.515 9.76007 100.098 10.1559 100.098C10.5309 100.098 10.6559 100.473 10.6976 100.577C10.7809 100.848 10.7809 101.181 10.7809 101.473C10.7809 101.806 10.7809 102.119 10.6976 102.431C10.5726 102.869 10.3226 102.952 10.1559 102.952Z" fill="black"/>
<path d="M12.2589 102.723H11.8631V103.14H12.2589V102.723Z" fill="black"/>
<path d="M13.5994 102.223L12.9952 102.827V103.14H14.9536V102.785H14.0577C13.9952 102.785 13.9327 102.785 13.8911 102.785H13.3494C13.4952 102.66 13.8702 102.285 14.0369 102.14C14.1202 102.056 14.3702 101.848 14.4744 101.765C14.6827 101.535 14.9536 101.285 14.9536 100.869C14.9536 100.306 14.5577 99.8062 13.9119 99.8062C13.3494 99.8062 13.0786 100.181 12.9536 100.619C13.0161 100.702 13.0369 100.723 13.0369 100.744C13.0577 100.744 13.0994 100.806 13.1619 100.89C13.2452 100.515 13.3911 100.119 13.8286 100.119C14.3077 100.119 14.5577 100.494 14.5577 100.869C14.5577 101.285 14.2661 101.577 13.9744 101.869L13.5994 102.223Z" fill="black"/>
<path d="M19.8906 76.8229H18.1667" stroke="black" stroke-width="0.394624" stroke-miterlimit="10" stroke-linejoin="round"/>
<path d="M11.1767 76.9257C11.1767 76.5299 11.1559 76.0715 10.9476 75.6757C10.7392 75.3215 10.4059 75.1965 10.1559 75.1965C9.86424 75.1965 9.5309 75.3215 9.32257 75.759C9.1559 76.134 9.13507 76.5299 9.13507 76.9257C9.13507 77.3215 9.1559 77.6757 9.30174 78.0299C9.48924 78.509 9.86424 78.634 10.1559 78.634C10.5101 78.634 10.8226 78.4465 10.9684 78.0924C11.1142 77.7799 11.1767 77.4465 11.1767 76.9257ZM10.1559 78.3424C9.9059 78.3424 9.69757 78.1549 9.5934 77.8007C9.5309 77.509 9.51007 77.259 9.51007 76.8632C9.51007 76.5507 9.51007 76.259 9.5934 75.9882C9.63507 75.9049 9.76007 75.4882 10.1559 75.4882C10.5309 75.4882 10.6559 75.8632 10.6976 75.9674C10.7809 76.2382 10.7809 76.5715 10.7809 76.8632C10.7809 77.1965 10.7809 77.509 10.6976 77.8215C10.5726 78.259 10.3226 78.3424 10.1559 78.3424Z" fill="black"/>
<path d="M12.2589 78.1132H11.8631V78.5299H12.2589V78.1132Z" fill="black"/>
<path d="M14.5786 77.6965H15.0577V77.384H14.5786V75.3007H14.1202L12.8911 77.384V77.6965H14.1827V78.5299H14.5786V77.6965ZM13.2661 77.384C13.5161 76.9674 14.2244 75.8007 14.2244 75.5299V77.384H13.2661Z" fill="black"/>
<path d="M19.8906 52.2135H18.1667" stroke="black" stroke-width="0.394624" stroke-miterlimit="10" stroke-linejoin="round"/>
<path d="M11.1767 52.3161C11.1767 51.9203 11.1559 51.462 10.9476 51.0661C10.7392 50.712 10.4059 50.587 10.1559 50.587C9.86424 50.587 9.5309 50.712 9.32257 51.1495C9.1559 51.5245 9.13507 51.9203 9.13507 52.3161C9.13507 52.712 9.1559 53.0661 9.30174 53.4203C9.48924 53.8995 9.86424 54.0245 10.1559 54.0245C10.5101 54.0245 10.8226 53.837 10.9684 53.4828C11.1142 53.1703 11.1767 52.837 11.1767 52.3161ZM10.1559 53.7328C9.9059 53.7328 9.69757 53.5453 9.5934 53.1911C9.5309 52.8995 9.51007 52.6495 9.51007 52.2536C9.51007 51.9411 9.51007 51.6495 9.5934 51.3786C9.63507 51.2953 9.76007 50.8786 10.1559 50.8786C10.5309 50.8786 10.6559 51.2536 10.6976 51.3578C10.7809 51.6286 10.7809 51.962 10.7809 52.2536C10.7809 52.587 10.7809 52.8995 10.6976 53.212C10.5726 53.6495 10.3226 53.7328 10.1559 53.7328Z" fill="black"/>
<path d="M12.2589 53.5036H11.8631V53.9203H12.2589V53.5036Z" fill="black"/>
<path d="M14.7869 50.6911C14.5369 50.587 14.3286 50.587 14.2661 50.587C13.5786 50.587 12.9536 51.2745 12.9536 52.337C12.9536 53.7328 13.5577 54.0245 13.9744 54.0245C14.2661 54.0245 14.4952 53.9203 14.6827 53.6911C14.8911 53.4411 14.9952 53.212 14.9952 52.837C14.9952 52.1911 14.6619 51.6495 14.2036 51.6495C14.0369 51.6495 13.6619 51.6911 13.3702 52.0661C13.4327 51.2745 13.8077 50.8786 14.2661 50.8786C14.4536 50.8786 14.6202 50.8995 14.7869 50.9828V50.6911ZM13.3702 52.837C13.3702 52.7745 13.3702 52.7745 13.3702 52.712C13.3702 52.337 13.5994 51.9411 13.9952 51.9411C14.2452 51.9411 14.3702 52.0661 14.4744 52.2536C14.5786 52.4411 14.5786 52.6078 14.5786 52.837C14.5786 53.0036 14.5786 53.212 14.4744 53.4203C14.3911 53.5661 14.2661 53.7328 13.9744 53.7328C13.4536 53.7328 13.3911 53.0036 13.3702 52.837Z" fill="black"/>
<path d="M19.8906 27.6042H18.1667" stroke="black" stroke-width="0.394624" stroke-miterlimit="10" stroke-linejoin="round"/>
<path d="M11.1767 27.7065C11.1767 27.3106 11.1559 26.8523 10.9476 26.4565C10.7392 26.1023 10.4059 25.9773 10.1559 25.9773C9.86424 25.9773 9.5309 26.1023 9.32257 26.5398C9.1559 26.9148 9.13507 27.3106 9.13507 27.7065C9.13507 28.1023 9.1559 28.4565 9.30174 28.8106C9.48924 29.2898 9.86424 29.4148 10.1559 29.4148C10.5101 29.4148 10.8226 29.2273 10.9684 28.8731C11.1142 28.5606 11.1767 28.2273 11.1767 27.7065ZM10.1559 29.1231C9.9059 29.1231 9.69757 28.9356 9.5934 28.5815C9.5309 28.2898 9.51007 28.0398 9.51007 27.644C9.51007 27.3315 9.51007 27.0398 9.5934 26.769C9.63507 26.6856 9.76007 26.269 10.1559 26.269C10.5309 26.269 10.6559 26.644 10.6976 26.7481C10.7809 27.019 10.7809 27.3523 10.7809 27.644C10.7809 27.9773 10.7809 28.2898 10.6976 28.6023C10.5726 29.0398 10.3226 29.1231 10.1559 29.1231Z" fill="black"/>
<path d="M12.2589 28.894H11.8631V29.3106H12.2589V28.894Z" fill="black"/>
<path d="M14.3286 27.5606C14.7661 27.4148 14.9327 27.1023 14.9327 26.8315C14.9327 26.3731 14.4952 25.9773 13.9744 25.9773C13.4327 25.9773 13.0161 26.394 13.0161 26.8315C13.0161 27.1023 13.1827 27.4148 13.6202 27.5606C13.2661 27.6856 12.9536 27.9981 12.9536 28.4356C12.9536 28.9565 13.4119 29.4148 13.9744 29.4148C14.5577 29.4148 14.9952 28.9565 14.9952 28.4356C14.9952 27.9773 14.6411 27.6856 14.3286 27.5606ZM13.9744 27.4148C13.5994 27.4148 13.3702 27.1856 13.3702 26.8315C13.3702 26.4981 13.5994 26.269 13.9744 26.269C14.3494 26.269 14.5786 26.519 14.5786 26.8315C14.5786 27.1856 14.3286 27.4148 13.9744 27.4148ZM13.9744 29.1231C13.6411 29.1231 13.3494 28.8731 13.3494 28.4148C13.3494 27.9148 13.7036 27.7273 13.9744 27.7273C14.2452 27.7273 14.5994 27.9148 14.5994 28.4148C14.5994 28.894 14.2869 29.1231 13.9744 29.1231Z" fill="black"/>
<path d="M19.8906 2.9948H18.1667" stroke="black" stroke-width="0.394624" stroke-miterlimit="10" stroke-linejoin="round"/>
<path d="M10.4059 1.36768H10.3018C10.0101 1.65934 9.59342 1.68018 9.36426 1.70101V1.97184C9.53092 1.97184 9.76009 1.97184 10.0101 1.86768V4.40934H9.38509V4.70101H11.0101V4.40934H10.4059V1.36768Z" fill="black"/>
<path d="M12.2589 4.28433H11.8631V4.701H12.2589V4.28433Z" fill="black"/>
<path d="M14.9952 3.09684C14.9952 2.70101 14.9744 2.24268 14.7661 1.84684C14.5577 1.49268 14.2244 1.36768 13.9744 1.36768C13.6827 1.36768 13.3494 1.49268 13.1411 1.93018C12.9744 2.30518 12.9536 2.70101 12.9536 3.09684C12.9536 3.49268 12.9744 3.84684 13.1202 4.20101C13.3077 4.68018 13.6827 4.80518 13.9744 4.80518C14.3286 4.80518 14.6411 4.61768 14.7869 4.26351C14.9327 3.95101 14.9952 3.61768 14.9952 3.09684ZM13.9744 4.51351C13.7244 4.51351 13.5161 4.32601 13.4119 3.97184C13.3494 3.68018 13.3286 3.43018 13.3286 3.03434C13.3286 2.72184 13.3286 2.43018 13.4119 2.15934C13.4536 2.07601 13.5786 1.65934 13.9744 1.65934C14.3494 1.65934 14.4744 2.03434 14.5161 2.13851C14.5994 2.40934 14.5994 2.74268 14.5994 3.03434C14.5994 3.36768 14.5994 3.68018 14.5161 3.99268C14.3911 4.43018 14.1411 4.51351 13.9744 4.51351Z" fill="black"/>
<path d="M4.15283 67.4384L3.09033 66.3134V66.7301L3.90283 67.5426L3.09033 68.0634V68.4593L4.15283 67.7718L5.27783 68.9593V68.5634L4.36117 67.6468L5.27783 67.1051V66.6884L4.15283 67.4384Z" fill="black"/>
<path d="M4.99412 64.8807C4.93162 64.8598 4.88995 64.8598 4.80662 64.8598C4.51495 64.8598 4.45245 65.0682 4.45245 65.2765C4.45245 65.464 4.53579 65.6723 4.70245 65.8598L4.47329 65.7973V66.0682L6.01495 66.4015V66.1098L5.30662 65.964C5.07745 65.9015 4.97329 65.8807 4.84829 65.7765C4.72329 65.6932 4.68162 65.589 4.68162 65.464C4.68162 65.2973 4.74412 65.1723 4.91079 65.1723C4.95245 65.1723 4.97329 65.1723 4.99412 65.1723L6.01495 65.4015V65.089L4.99412 64.8807Z" fill="black"/>
<path d="M5.24414 63.2486V62.2486C5.24414 62.1861 5.24414 62.1236 5.16081 62.1236C5.07747 62.1236 5.07747 62.1861 5.07747 62.2486V63.2486H4.05664C4.01497 63.2486 3.93164 63.2486 3.93164 63.3319C3.93164 63.4152 4.01497 63.4152 4.05664 63.4152H5.07747V64.4152C5.07747 64.4777 5.07747 64.5402 5.16081 64.5402C5.24414 64.5402 5.24414 64.4777 5.24414 64.4152V63.4152H6.24414C6.30664 63.4152 6.36914 63.4152 6.36914 63.3319C6.36914 63.2486 6.30664 63.2486 6.24414 63.2486H5.24414Z" fill="black"/>
<path d="M3.68164 60.8029V60.8862C3.88997 61.0946 3.91081 61.3862 3.91081 61.5946H4.13997C4.11914 61.4487 4.11914 61.2821 4.05664 61.1154H5.80664V61.5737H6.01497V60.3446H5.80664V60.8029H3.68164Z" fill="black"/>
<mask id="mask1_11_10321" style="mask-type:luminance" maskUnits="userSpaceOnUse" x="19" y="109" width="124" height="18">
<path d="M19.8906 109.333H142.943V126.042H19.8906V109.333Z" fill="white"/>
</mask>
<g mask="url(#mask1_11_10321)">
<path d="M19.8906 126.042L21.1354 125.427L22.3802 124.823L23.6198 124.234L24.8646 123.656L26.1094 123.094L27.349 122.542L28.5937 122L29.8333 121.474L31.0781 120.958L32.3229 120.458L33.5625 119.969L34.8073 119.49L36.0521 119.026L37.2917 118.573L38.5365 118.135L39.7813 117.708L41.0208 117.292L42.2656 116.891L43.5052 116.5L44.75 116.125L45.9948 115.76L47.2344 115.411L48.4792 115.068L49.724 114.745L50.9635 114.432L52.2083 114.13L53.4531 113.839L54.6927 113.563L55.9375 113.302L57.1823 113.047L58.4219 112.813L59.6667 112.583L60.9063 112.37L62.151 112.172L63.3958 111.979L64.6354 111.807L65.8802 111.641L67.125 111.49L68.3646 111.354L69.6094 111.229L70.8542 111.115L72.0938 111.016L73.3385 110.927L74.5781 110.854L75.8229 110.786L77.0677 110.74L78.3073 110.703L79.5521 110.677L80.7969 110.661H82.0365L83.2813 110.677L84.526 110.703L85.7656 110.74L87.0104 110.786L88.25 110.854L89.4948 110.927L90.7396 111.016L91.9792 111.115L93.224 111.229L94.4688 111.354L95.7083 111.49L96.9531 111.641L98.1979 111.807L99.4375 111.979L100.682 112.172L101.927 112.37L103.167 112.583L104.411 112.813L105.651 113.047L106.896 113.302L108.141 113.563L109.38 113.839L110.625 114.13L111.87 114.432L113.109 114.745L114.354 115.068L115.599 115.411L116.839 115.76L118.083 116.125L119.323 116.5L120.568 116.891L121.813 117.292L123.052 117.708L124.297 118.135L125.542 118.573L126.781 119.026L128.026 119.49L129.271 119.969L130.51 120.458L131.755 120.958L132.995 121.474L134.24 122L135.484 122.542L136.724 123.094L137.969 123.656L139.214 124.234L140.453 124.823L141.698 125.427L142.943 126.042" stroke="black" stroke-width="0.73992" stroke-miterlimit="10" stroke-linecap="square" stroke-linejoin="round"/>
</g>
<mask id="mask2_11_10321" style="mask-type:luminance" maskUnits="userSpaceOnUse" x="19" y="2" width="124" height="125">
<path d="M19.8906 2.9948H142.943V126.042H19.8906V2.9948Z" fill="white"/>
</mask>
<g mask="url(#mask2_11_10321)">
<path d="M19.8906 126.042L21.1354 124.802L22.3802 123.557L23.6198 122.313L24.8646 121.073L26.1094 119.828L27.349 118.583L28.5937 117.344L29.8333 116.099L31.0781 114.854L32.3229 113.615L33.5625 112.37L34.8073 111.13L36.0521 109.885L37.2917 108.641L38.5365 107.401L39.7813 106.156L41.0208 104.911L42.2656 103.672L43.5052 102.427L44.75 101.182L45.9948 99.9427L47.2344 98.6979L48.4792 97.4583L49.724 96.2135L50.9635 94.9688L52.2083 93.7292L53.4531 92.4844L54.6927 91.2396L55.9375 90L57.1823 88.7552L58.4219 87.5104L59.6667 86.2708L60.9063 85.026L62.151 83.7812L63.3958 82.5417L64.6354 81.2969L65.8802 80.0573L67.125 78.8125L68.3646 77.5677L69.6094 76.3281L70.8542 75.0833L72.0938 73.8385L73.3385 72.599L74.5781 71.3542L75.8229 70.1094L77.0677 68.8698L78.3073 67.625L79.5521 66.3854L80.7969 65.1406L82.0365 63.8958L83.2813 62.6562L84.526 61.4115L85.7656 60.1667L87.0104 58.9271L88.25 57.6823L89.4948 56.4375L90.7396 55.1979L91.9792 53.9531L93.224 52.7135L94.4688 51.4687L95.7083 50.224L96.9531 48.9844L98.1979 47.7396L99.4375 46.4948L100.682 45.2552L101.927 44.0104L103.167 42.7656L104.411 41.526L105.651 40.2812L106.896 39.0365L108.141 37.7969L109.38 36.5521L110.625 35.3125L111.87 34.0677L113.109 32.8229L114.354 31.5833L115.599 30.3385L116.839 29.0937L118.083 27.8542L119.323 26.6094L120.568 25.3646L121.813 24.125L123.052 22.8802L124.297 21.6406L125.542 20.3958L126.781 19.151L128.026 17.9115L129.271 16.6667L130.51 15.4219L131.755 14.1823L132.995 12.9375L134.24 11.6927L135.484 10.4531L136.724 9.20832L137.969 7.96874L139.214 6.72394L140.453 5.47915L141.698 4.23957L142.943 2.99478" stroke="black" stroke-width="0.73992" stroke-miterlimit="10" stroke-linejoin="round" stroke-dasharray="2.74 1.18"/>
</g>
<mask id="mask3_11_10321" style="mask-type:luminance" maskUnits="userSpaceOnUse" x="42" y="114" width="4" height="13">
<path d="M42.6667 114.667H45.3334V126.042H42.6667V114.667Z" fill="white"/>
</mask>
<g mask="url(#mask3_11_10321)">
<path d="M44.5 126.042V116.198" stroke="#DB534D" stroke-width="0.73992" stroke-miterlimit="10" stroke-linecap="square" stroke-linejoin="round"/>
</g>
<path d="M44.5 116.198H29.7344" stroke="#DB534D" stroke-width="0.73992" stroke-miterlimit="10" stroke-linecap="square" stroke-linejoin="round"/>
<path d="M29.7344 116.198V121.516" stroke="#DB534D" stroke-width="0.73992" stroke-miterlimit="10" stroke-linecap="square" stroke-linejoin="round"/>
<path d="M29.7344 121.516H24.4219" stroke="#DB534D" stroke-width="0.73992" stroke-miterlimit="10" stroke-linecap="square" stroke-linejoin="round"/>
<path d="M24.4219 121.516V123.865" stroke="#DB534D" stroke-width="0.73992" stroke-miterlimit="10" stroke-linecap="square" stroke-linejoin="round"/>
<path d="M24.4219 123.865H22.0729" stroke="#DB534D" stroke-width="0.73992" stroke-miterlimit="10" stroke-linecap="square" stroke-linejoin="round"/>
<mask id="mask4_11_10321" style="mask-type:luminance" maskUnits="userSpaceOnUse" x="21" y="122" width="2" height="5">
<path d="M21.3334 122.667H22.6667V126.042H21.3334V122.667Z" fill="white"/>
</mask>
<g mask="url(#mask4_11_10321)">
<path d="M22.0729 123.865V124.974" stroke="#DB534D" stroke-width="0.73992" stroke-miterlimit="10" stroke-linecap="square" stroke-linejoin="round"/>
</g>
<mask id="mask5_11_10321" style="mask-type:luminance" maskUnits="userSpaceOnUse" x="20" y="124" width="3" height="3">
<path d="M20 124H22.6667V126.042H20V124Z" fill="white"/>
</mask>
<g mask="url(#mask5_11_10321)">
<path d="M22.0729 124.974H20.9636" stroke="#DB534D" stroke-width="0.73992" stroke-miterlimit="10" stroke-linecap="square" stroke-linejoin="round"/>
<path d="M20.9636 124.974V125.51" stroke="#DB534D" stroke-width="0.73992" stroke-miterlimit="10" stroke-linecap="square" stroke-linejoin="round"/>
</g>
<mask id="mask6_11_10321" style="mask-type:luminance" maskUnits="userSpaceOnUse" x="19" y="124" width="4" height="3">
<path d="M19.8906 124H22.6667V126.042H19.8906V124Z" fill="white"/>
</mask>
<g mask="url(#mask6_11_10321)">
<path d="M20.9635 125.51H20.4219" stroke="#DB534D" stroke-width="0.73992" stroke-miterlimit="10" stroke-linecap="square" stroke-linejoin="round"/>
</g>
<mask id="mask7_11_10321" style="mask-type:luminance" maskUnits="userSpaceOnUse" x="19" y="124" width="3" height="3">
<path d="M19.8906 124H21.3333V126.042H19.8906V124Z" fill="white"/>
</mask>
<g mask="url(#mask7_11_10321)">
<path d="M20.4219 125.51V125.776" stroke="#DB534D" stroke-width="0.73992" stroke-miterlimit="10" stroke-linecap="square" stroke-linejoin="round"/>
<path d="M20.4219 125.776H20.1562" stroke="#DB534D" stroke-width="0.73992" stroke-miterlimit="10" stroke-linecap="square" stroke-linejoin="round"/>
<path d="M20.1562 125.776V125.911" stroke="#DB534D" stroke-width="0.73992" stroke-miterlimit="10" stroke-linecap="square" stroke-linejoin="round"/>
</g>
<mask id="mask8_11_10321" style="mask-type:luminance" maskUnits="userSpaceOnUse" x="19" y="125" width="3" height="2">
<path d="M19.8906 125.333H21.3333V126.042H19.8906V125.333Z" fill="white"/>
</mask>
<g mask="url(#mask8_11_10321)">
<path d="M20.1563 125.911H20.0261" stroke="#DB534D" stroke-width="0.73992" stroke-miterlimit="10" stroke-linecap="square" stroke-linejoin="round"/>
<path d="M20.0261 125.911V125.979" stroke="#DB534D" stroke-width="0.73992" stroke-miterlimit="10" stroke-linecap="square" stroke-linejoin="round"/>
<path d="M20.0261 125.979H19.9584" stroke="#DB534D" stroke-width="0.73992" stroke-miterlimit="10" stroke-linecap="square" stroke-linejoin="round"/>
<path d="M19.9584 125.979V126.01" stroke="#DB534D" stroke-width="0.73992" stroke-miterlimit="10" stroke-linecap="square" stroke-linejoin="round"/>
<path d="M19.9584 126.01H19.9271" stroke="#DB534D" stroke-width="0.73992" stroke-miterlimit="10" stroke-linecap="square" stroke-linejoin="round"/>
<path d="M19.9271 126.01V126.026" stroke="#DB534D" stroke-width="0.73992" stroke-miterlimit="10" stroke-linecap="square" stroke-linejoin="round"/>
<path d="M19.9271 126.026H19.9062" stroke="#DB534D" stroke-width="0.73992" stroke-miterlimit="10" stroke-linecap="square" stroke-linejoin="round"/>
<path d="M19.9062 126.026V126.036" stroke="#DB534D" stroke-width="0.73992" stroke-miterlimit="10" stroke-linecap="square" stroke-linejoin="round"/>
</g>
<path d="M19.8906 126.042V2.99478" stroke="black" stroke-width="0.394624" stroke-miterlimit="10" stroke-linecap="square"/>
<path d="M142.943 126.042V2.99478" stroke="black" stroke-width="0.394624" stroke-miterlimit="10" stroke-linecap="square"/>
<path d="M19.8906 126.042H142.943" stroke="black" stroke-width="0.394624" stroke-miterlimit="10" stroke-linecap="square"/>
<path d="M19.8906 2.9948H142.943" stroke="black" stroke-width="0.394624" stroke-miterlimit="10" stroke-linecap="square"/>
</g>
</svg>
