<?xml version="1.0" encoding="UTF-8" standalone="no"?>
<!-- Created with Inkscape (http://www.inkscape.org/) -->

<svg
   width="162.60672mm"
   height="72.994904mm"
   viewBox="0 0 162.60672 72.994904"
   version="1.1"
   id="svg1"
   xmlns="http://www.w3.org/2000/svg"
   xmlns:svg="http://www.w3.org/2000/svg">
  <defs
     id="defs1" />
  <g
     id="g4"
     transform="translate(-16.85641,-196.62041)">
    <g
       transform="matrix(0.264583,0,0,0.264583,49.536162,233.18729)"
       id="g157">
      <path
         style="fill:#ff0000;fill-opacity:0;stroke:#000000;stroke-width:1;stroke-linejoin:round;stroke-opacity:1"
         d="m -109.073,-87.7835 -13.89,69.6471 4.281,89.6982 16.535,-14.2105 5.9391,-98.4808 z"
         id="path152" />
      <path
         style="fill:#ff0000;fill-opacity:0;stroke:#000000;stroke-width:1;stroke-linejoin:round;stroke-opacity:1"
         d="M -118.682,71.5618 -40.2721,120.802 24.7233,137.024 -13.5175,97.8091 -102.147,57.3513 Z"
         id="path153" />
      <path
         style="fill:#ff0000;fill-opacity:0;stroke:#000000;stroke-width:1;stroke-linejoin:round;stroke-opacity:1"
         d="m 40.2721,-120.802 -64.9954,-16.222 -84.3497,49.2405 12.8651,46.654 92.30014,-20.4067 z"
         id="path154" />
      <path
         style="fill:#ff0000;fill-opacity:0;stroke:#000000;stroke-width:1;stroke-linejoin:round;stroke-opacity:1"
         d="m -3.90776,-61.5362 -92.30014,20.4067 -5.9391,98.4808 88.6295,40.4578 60.7153,-73.4765 z"
         id="path155" />
      <path
         style="fill:#ff0000;fill-opacity:0;stroke:#000000;stroke-width:1;stroke-linejoin:round;stroke-opacity:1"
         d="M 24.7233,137.024 109.073,87.7835 122.963,18.1364 47.1978,24.3326 -13.5175,97.8091 Z"
         id="path156" />
      <path
         style="fill:#ff0000;fill-opacity:0;stroke:#000000;stroke-width:1;stroke-linejoin:round;stroke-opacity:1"
         d="M 122.963,18.1364 118.682,-71.5618 40.2721,-120.802 -3.90776,-61.5362 47.1978,24.3326 Z"
         id="path157" />
    </g>
    <g
       transform="matrix(0.264583,0,0,0.264583,49.536162,233.18729)"
       id="g169"
       style="opacity:0.2">
      <path
         style="fill:#ff0000;fill-opacity:0;stroke:#000000;stroke-width:1;stroke-linejoin:round;stroke-opacity:1"
         d="M -47.1978,-24.3326 13.5175,-97.8091 102.147,-57.3513 96.2079,41.1295 3.90776,61.5362 Z"
         id="path158" />
      <path
         style="fill:#ff0000;fill-opacity:0;stroke:#000000;stroke-width:1;stroke-linejoin:round;stroke-opacity:1"
         d="M -47.1978,-24.3326 3.90776,61.5362 -40.2721,120.802 -118.682,71.5618 l -4.281,-89.6982 z"
         id="path159" />
      <path
         style="fill:#ff0000;fill-opacity:0;stroke:#000000;stroke-width:1;stroke-linejoin:round;stroke-opacity:1"
         d="m 13.5175,-97.8091 -60.7153,73.4765 -75.7652,6.1962 13.89,-69.6471 84.3497,-49.2405 z"
         id="path160" />
      <path
         style="fill:#ff0000;fill-opacity:0;stroke:#000000;stroke-width:1;stroke-linejoin:round;stroke-opacity:1"
         d="M 3.90776,61.5362 96.2079,41.1295 109.073,87.7835 24.7233,137.024 -40.2721,120.802 Z"
         id="path161" />
      <path
         style="fill:#ff0000;fill-opacity:0;stroke:#000000;stroke-width:1;stroke-linejoin:round;stroke-opacity:1"
         d="m 102.147,-57.3513 -88.6295,-40.4578 -38.2408,-39.2149 64.9954,16.222 78.4099,49.2402 z"
         id="path162" />
      <path
         style="fill:#ff0000;fill-opacity:0;stroke:#000000;stroke-width:1;stroke-linejoin:round;stroke-opacity:1"
         d="m 96.2079,41.1295 5.9391,-98.4808 16.535,-14.2105 4.281,89.6982 -13.89,69.6471 z"
         id="path163" />
      <path
         style="fill:#ff0000;fill-opacity:0;stroke:#000000;stroke-width:1;stroke-linejoin:round;stroke-opacity:1"
         d="m -109.073,-87.7835 -13.89,69.6471 4.281,89.6982 16.535,-14.2105 5.9391,-98.4808 z"
         id="path164" />
      <path
         style="fill:#ff0000;fill-opacity:0;stroke:#000000;stroke-width:1;stroke-linejoin:round;stroke-opacity:1"
         d="M -118.682,71.5618 -40.2721,120.802 24.7233,137.024 -13.5175,97.8091 -102.147,57.3513 Z"
         id="path165" />
      <path
         style="fill:#ff0000;fill-opacity:0;stroke:#000000;stroke-width:1;stroke-linejoin:round;stroke-opacity:1"
         d="m 40.2721,-120.802 -64.9954,-16.222 -84.3497,49.2405 12.8651,46.654 92.30014,-20.4067 z"
         id="path166" />
      <path
         style="fill:#ff0000;fill-opacity:0;stroke:#000000;stroke-width:1;stroke-linejoin:round;stroke-opacity:1"
         d="m -3.90776,-61.5362 -92.30014,20.4067 -5.9391,98.4808 88.6295,40.4578 60.7153,-73.4765 z"
         id="path167" />
      <path
         style="fill:#ff0000;fill-opacity:0;stroke:#000000;stroke-width:1;stroke-linejoin:round;stroke-opacity:1"
         d="M 24.7233,137.024 109.073,87.7835 122.963,18.1364 47.1978,24.3326 -13.5175,97.8091 Z"
         id="path168" />
      <path
         style="fill:#ff0000;fill-opacity:0;stroke:#000000;stroke-width:1;stroke-linejoin:round;stroke-opacity:1"
         d="M 122.963,18.1364 118.682,-71.5618 40.2721,-120.802 -3.90776,-61.5362 47.1978,24.3326 Z"
         id="path169" />
    </g>
    <g
       id="g1">
      <path
         style="opacity:1;fill:none;stroke:#e01b24;stroke-width:0.264583;stroke-miterlimit:4.1;stroke-dasharray:none;stroke-dashoffset:0"
         d="m 22.509802,248.36147 25.99243,-31.45561 33.56785,21.08001 -25.99256,31.45564 z"
         id="path170" />
      <path
         style="opacity:1;fill:none;stroke:#e01b24;stroke-width:0.264583;stroke-miterlimit:4.1;stroke-dasharray:none;stroke-dashoffset:0"
         d="m 48.502232,216.90586 -5.50744,-19.9728 -25.99255,31.45565 5.50756,19.97276"
         id="path171" />
      <path
         style="opacity:1;fill:none;stroke:#e01b24;stroke-width:0.264583;stroke-miterlimit:4.1;stroke-dasharray:none;stroke-dashoffset:0"
         d="m 42.994792,196.93306 33.56773,21.08005 5.50756,19.97276"
         id="path172" />
      <path
         style="opacity:1;fill:none;stroke:#e01b24;stroke-width:0.264583;stroke-miterlimit:4.1;stroke-dasharray:2.11666, 2.11666;stroke-dashoffset:0"
         d="m 76.562522,218.01311 -25.99243,31.45561 5.50743,19.97279"
         id="path173" />
      <path
         style="opacity:1;fill:none;stroke:#e01b24;stroke-width:0.264583;stroke-miterlimit:4.1;stroke-dasharray:2.11666, 2.11666;stroke-dashoffset:0"
         d="M 50.570092,249.46872 17.002242,228.38871"
         id="path174" />
    </g>
  </g>
  <g
     id="g3"
     transform="matrix(0.44925115,0,0,0.44925115,43.555703,-87.367532)"
     style="stroke-width:0.588943;stroke-dasharray:none">
    <g
       transform="matrix(0.264583,0,0,0.264583,127.58632,231.09453)"
       id="g157-0"
       style="stroke-width:2.22593;stroke-dasharray:none">
      <path
         style="fill:#ff0000;fill-opacity:0;stroke:#000000;stroke-width:2.22593;stroke-linejoin:round;stroke-dasharray:none;stroke-opacity:1"
         d="m -109.073,-87.7835 -13.89,69.6471 4.281,89.6982 16.535,-14.2105 5.9391,-98.4808 z"
         id="path152-2" />
      <path
         style="fill:#ff0000;fill-opacity:0;stroke:#000000;stroke-width:2.22593;stroke-linejoin:round;stroke-dasharray:none;stroke-opacity:1"
         d="M -118.682,71.5618 -40.2721,120.802 24.7233,137.024 -13.5175,97.8091 -102.147,57.3513 Z"
         id="path153-4" />
      <path
         style="fill:#ff0000;fill-opacity:0;stroke:#000000;stroke-width:2.22593;stroke-linejoin:round;stroke-dasharray:none;stroke-opacity:1"
         d="m 40.2721,-120.802 -64.9954,-16.222 -84.3497,49.2405 12.8651,46.654 92.30014,-20.4067 z"
         id="path154-8" />
      <path
         style="fill:#ff0000;fill-opacity:0;stroke:#000000;stroke-width:2.22593;stroke-linejoin:round;stroke-dasharray:none;stroke-opacity:1"
         d="m -3.90776,-61.5362 -92.30014,20.4067 -5.9391,98.4808 88.6295,40.4578 60.7153,-73.4765 z"
         id="path155-3" />
      <path
         style="fill:#ff0000;fill-opacity:0;stroke:#000000;stroke-width:2.22593;stroke-linejoin:round;stroke-dasharray:none;stroke-opacity:1"
         d="M 24.7233,137.024 109.073,87.7835 122.963,18.1364 47.1978,24.3326 -13.5175,97.8091 Z"
         id="path156-9" />
      <path
         style="fill:#ff0000;fill-opacity:0;stroke:#000000;stroke-width:2.22593;stroke-linejoin:round;stroke-dasharray:none;stroke-opacity:1"
         d="M 122.963,18.1364 118.682,-71.5618 40.2721,-120.802 -3.90776,-61.5362 47.1978,24.3326 Z"
         id="path157-0" />
    </g>
    <g
       transform="matrix(0.264583,0,0,0.264583,127.58632,231.09453)"
       id="g169-5"
       style="opacity:0.2;stroke-width:2.22593;stroke-dasharray:none">
      <path
         style="fill:#ff0000;fill-opacity:0;stroke:#000000;stroke-width:2.22593;stroke-linejoin:round;stroke-dasharray:none;stroke-opacity:1"
         d="M -47.1978,-24.3326 13.5175,-97.8091 102.147,-57.3513 96.2079,41.1295 3.90776,61.5362 Z"
         id="path158-2" />
      <path
         style="fill:#ff0000;fill-opacity:0;stroke:#000000;stroke-width:2.22593;stroke-linejoin:round;stroke-dasharray:none;stroke-opacity:1"
         d="M -47.1978,-24.3326 3.90776,61.5362 -40.2721,120.802 -118.682,71.5618 l -4.281,-89.6982 z"
         id="path159-2" />
      <path
         style="fill:#ff0000;fill-opacity:0;stroke:#000000;stroke-width:2.22593;stroke-linejoin:round;stroke-dasharray:none;stroke-opacity:1"
         d="m 13.5175,-97.8091 -60.7153,73.4765 -75.7652,6.1962 13.89,-69.6471 84.3497,-49.2405 z"
         id="path160-7" />
      <path
         style="fill:#ff0000;fill-opacity:0;stroke:#000000;stroke-width:2.22593;stroke-linejoin:round;stroke-dasharray:none;stroke-opacity:1"
         d="M 3.90776,61.5362 96.2079,41.1295 109.073,87.7835 24.7233,137.024 -40.2721,120.802 Z"
         id="path161-3" />
      <path
         style="fill:#ff0000;fill-opacity:0;stroke:#000000;stroke-width:2.22593;stroke-linejoin:round;stroke-dasharray:none;stroke-opacity:1"
         d="m 102.147,-57.3513 -88.6295,-40.4578 -38.2408,-39.2149 64.9954,16.222 78.4099,49.2402 z"
         id="path162-7" />
      <path
         style="fill:#ff0000;fill-opacity:0;stroke:#000000;stroke-width:2.22593;stroke-linejoin:round;stroke-dasharray:none;stroke-opacity:1"
         d="m 96.2079,41.1295 5.9391,-98.4808 16.535,-14.2105 4.281,89.6982 -13.89,69.6471 z"
         id="path163-9" />
      <path
         style="fill:#ff0000;fill-opacity:0;stroke:#000000;stroke-width:2.22593;stroke-linejoin:round;stroke-dasharray:none;stroke-opacity:1"
         d="m -109.073,-87.7835 -13.89,69.6471 4.281,89.6982 16.535,-14.2105 5.9391,-98.4808 z"
         id="path164-0" />
      <path
         style="fill:#ff0000;fill-opacity:0;stroke:#000000;stroke-width:2.22593;stroke-linejoin:round;stroke-dasharray:none;stroke-opacity:1"
         d="M -118.682,71.5618 -40.2721,120.802 24.7233,137.024 -13.5175,97.8091 -102.147,57.3513 Z"
         id="path165-2" />
      <path
         style="fill:#ff0000;fill-opacity:0;stroke:#000000;stroke-width:2.22593;stroke-linejoin:round;stroke-dasharray:none;stroke-opacity:1"
         d="m 40.2721,-120.802 -64.9954,-16.222 -84.3497,49.2405 12.8651,46.654 92.30014,-20.4067 z"
         id="path166-3" />
      <path
         style="fill:#ff0000;fill-opacity:0;stroke:#000000;stroke-width:2.22593;stroke-linejoin:round;stroke-dasharray:none;stroke-opacity:1"
         d="m -3.90776,-61.5362 -92.30014,20.4067 -5.9391,98.4808 88.6295,40.4578 60.7153,-73.4765 z"
         id="path167-9" />
      <path
         style="fill:#ff0000;fill-opacity:0;stroke:#000000;stroke-width:2.22593;stroke-linejoin:round;stroke-dasharray:none;stroke-opacity:1"
         d="M 24.7233,137.024 109.073,87.7835 122.963,18.1364 47.1978,24.3326 -13.5175,97.8091 Z"
         id="path168-9" />
      <path
         style="fill:#ff0000;fill-opacity:0;stroke:#000000;stroke-width:2.22593;stroke-linejoin:round;stroke-dasharray:none;stroke-opacity:1"
         d="M 122.963,18.1364 118.682,-71.5618 40.2721,-120.802 -3.90776,-61.5362 47.1978,24.3326 Z"
         id="path169-7" />
    </g>
  </g>
  <g
     id="g3-8"
     transform="matrix(0.44925115,0,0,0.44925115,43.555703,-47.244132)"
     style="stroke-width:0.588943;stroke-dasharray:none">
    <g
       transform="matrix(0.264583,0,0,0.264583,127.58632,231.09453)"
       id="g157-0-4"
       style="stroke-width:2.22593;stroke-dasharray:none">
      <path
         style="fill:#ff0000;fill-opacity:0;stroke:#000000;stroke-width:2.22593;stroke-linejoin:round;stroke-dasharray:none;stroke-opacity:1"
         d="m -109.073,-87.7835 -13.89,69.6471 4.281,89.6982 16.535,-14.2105 5.9391,-98.4808 z"
         id="path152-2-8" />
      <path
         style="fill:#ff0000;fill-opacity:0;stroke:#000000;stroke-width:2.22593;stroke-linejoin:round;stroke-dasharray:none;stroke-opacity:1"
         d="M -118.682,71.5618 -40.2721,120.802 24.7233,137.024 -13.5175,97.8091 -102.147,57.3513 Z"
         id="path153-4-0" />
      <path
         style="fill:#ff0000;fill-opacity:0;stroke:#000000;stroke-width:2.22593;stroke-linejoin:round;stroke-dasharray:none;stroke-opacity:1"
         d="m 40.2721,-120.802 -64.9954,-16.222 -84.3497,49.2405 12.8651,46.654 92.30014,-20.4067 z"
         id="path154-8-4" />
      <path
         style="fill:#ff0000;fill-opacity:0;stroke:#000000;stroke-width:2.22593;stroke-linejoin:round;stroke-dasharray:none;stroke-opacity:1"
         d="m -3.90776,-61.5362 -92.30014,20.4067 -5.9391,98.4808 88.6295,40.4578 60.7153,-73.4765 z"
         id="path155-3-6" />
      <path
         style="fill:#ff0000;fill-opacity:0;stroke:#000000;stroke-width:2.22593;stroke-linejoin:round;stroke-dasharray:none;stroke-opacity:1"
         d="M 24.7233,137.024 109.073,87.7835 122.963,18.1364 47.1978,24.3326 -13.5175,97.8091 Z"
         id="path156-9-0" />
      <path
         style="fill:#ff0000;fill-opacity:0;stroke:#000000;stroke-width:2.22593;stroke-linejoin:round;stroke-dasharray:none;stroke-opacity:1"
         d="M 122.963,18.1364 118.682,-71.5618 40.2721,-120.802 -3.90776,-61.5362 47.1978,24.3326 Z"
         id="path157-0-3" />
    </g>
    <g
       transform="matrix(0.264583,0,0,0.264583,127.58632,231.09453)"
       id="g169-5-2"
       style="opacity:0.2;stroke-width:2.22593;stroke-dasharray:none">
      <path
         style="fill:#ff0000;fill-opacity:0;stroke:#000000;stroke-width:2.22593;stroke-linejoin:round;stroke-dasharray:none;stroke-opacity:1"
         d="M -47.1978,-24.3326 13.5175,-97.8091 102.147,-57.3513 96.2079,41.1295 3.90776,61.5362 Z"
         id="path158-2-6" />
      <path
         style="fill:#ff0000;fill-opacity:0;stroke:#000000;stroke-width:2.22593;stroke-linejoin:round;stroke-dasharray:none;stroke-opacity:1"
         d="M -47.1978,-24.3326 3.90776,61.5362 -40.2721,120.802 -118.682,71.5618 l -4.281,-89.6982 z"
         id="path159-2-9" />
      <path
         style="fill:#ff0000;fill-opacity:0;stroke:#000000;stroke-width:2.22593;stroke-linejoin:round;stroke-dasharray:none;stroke-opacity:1"
         d="m 13.5175,-97.8091 -60.7153,73.4765 -75.7652,6.1962 13.89,-69.6471 84.3497,-49.2405 z"
         id="path160-7-4" />
      <path
         style="fill:#ff0000;fill-opacity:0;stroke:#000000;stroke-width:2.22593;stroke-linejoin:round;stroke-dasharray:none;stroke-opacity:1"
         d="M 3.90776,61.5362 96.2079,41.1295 109.073,87.7835 24.7233,137.024 -40.2721,120.802 Z"
         id="path161-3-1" />
      <path
         style="fill:#ff0000;fill-opacity:0;stroke:#000000;stroke-width:2.22593;stroke-linejoin:round;stroke-dasharray:none;stroke-opacity:1"
         d="m 102.147,-57.3513 -88.6295,-40.4578 -38.2408,-39.2149 64.9954,16.222 78.4099,49.2402 z"
         id="path162-7-3" />
      <path
         style="fill:#ff0000;fill-opacity:0;stroke:#000000;stroke-width:2.22593;stroke-linejoin:round;stroke-dasharray:none;stroke-opacity:1"
         d="m 96.2079,41.1295 5.9391,-98.4808 16.535,-14.2105 4.281,89.6982 -13.89,69.6471 z"
         id="path163-9-7" />
      <path
         style="fill:#ff0000;fill-opacity:0;stroke:#000000;stroke-width:2.22593;stroke-linejoin:round;stroke-dasharray:none;stroke-opacity:1"
         d="m -109.073,-87.7835 -13.89,69.6471 4.281,89.6982 16.535,-14.2105 5.9391,-98.4808 z"
         id="path164-0-8" />
      <path
         style="fill:#ff0000;fill-opacity:0;stroke:#000000;stroke-width:2.22593;stroke-linejoin:round;stroke-dasharray:none;stroke-opacity:1"
         d="M -118.682,71.5618 -40.2721,120.802 24.7233,137.024 -13.5175,97.8091 -102.147,57.3513 Z"
         id="path165-2-8" />
      <path
         style="fill:#ff0000;fill-opacity:0;stroke:#000000;stroke-width:2.22593;stroke-linejoin:round;stroke-dasharray:none;stroke-opacity:1"
         d="m 40.2721,-120.802 -64.9954,-16.222 -84.3497,49.2405 12.8651,46.654 92.30014,-20.4067 z"
         id="path166-3-3" />
      <path
         style="fill:#ff0000;fill-opacity:0;stroke:#000000;stroke-width:2.22593;stroke-linejoin:round;stroke-dasharray:none;stroke-opacity:1"
         d="m -3.90776,-61.5362 -92.30014,20.4067 -5.9391,98.4808 88.6295,40.4578 60.7153,-73.4765 z"
         id="path167-9-8" />
      <path
         style="fill:#ff0000;fill-opacity:0;stroke:#000000;stroke-width:2.22593;stroke-linejoin:round;stroke-dasharray:none;stroke-opacity:1"
         d="M 24.7233,137.024 109.073,87.7835 122.963,18.1364 47.1978,24.3326 -13.5175,97.8091 Z"
         id="path168-9-1" />
      <path
         style="fill:#ff0000;fill-opacity:0;stroke:#000000;stroke-width:2.22593;stroke-linejoin:round;stroke-dasharray:none;stroke-opacity:1"
         d="M 122.963,18.1364 118.682,-71.5618 40.2721,-120.802 -3.90776,-61.5362 47.1978,24.3326 Z"
         id="path169-7-5" />
    </g>
  </g>
  <g
     id="g3-8-6"
     transform="matrix(0.44925115,0,0,0.44925115,90.54022,-47.244132)"
     style="stroke-width:0.588943;stroke-dasharray:none">
    <g
       transform="matrix(0.264583,0,0,0.264583,127.58632,231.09453)"
       id="g157-0-4-5"
       style="stroke-width:2.22593;stroke-dasharray:none">
      <path
         style="fill:#ff0000;fill-opacity:0;stroke:#000000;stroke-width:2.22593;stroke-linejoin:round;stroke-dasharray:none;stroke-opacity:1"
         d="m -109.073,-87.7835 -13.89,69.6471 4.281,89.6982 16.535,-14.2105 5.9391,-98.4808 z"
         id="path152-2-8-9" />
      <path
         style="fill:#ff0000;fill-opacity:0;stroke:#000000;stroke-width:2.22593;stroke-linejoin:round;stroke-dasharray:none;stroke-opacity:1"
         d="M -118.682,71.5618 -40.2721,120.802 24.7233,137.024 -13.5175,97.8091 -102.147,57.3513 Z"
         id="path153-4-0-5" />
      <path
         style="fill:#ff0000;fill-opacity:0;stroke:#000000;stroke-width:2.22593;stroke-linejoin:round;stroke-dasharray:none;stroke-opacity:1"
         d="m 40.2721,-120.802 -64.9954,-16.222 -84.3497,49.2405 12.8651,46.654 92.30014,-20.4067 z"
         id="path154-8-4-4" />
      <path
         style="fill:#ff0000;fill-opacity:0;stroke:#000000;stroke-width:2.22593;stroke-linejoin:round;stroke-dasharray:none;stroke-opacity:1"
         d="m -3.90776,-61.5362 -92.30014,20.4067 -5.9391,98.4808 88.6295,40.4578 60.7153,-73.4765 z"
         id="path155-3-6-9" />
      <path
         style="fill:#ff0000;fill-opacity:0;stroke:#000000;stroke-width:2.22593;stroke-linejoin:round;stroke-dasharray:none;stroke-opacity:1"
         d="M 24.7233,137.024 109.073,87.7835 122.963,18.1364 47.1978,24.3326 -13.5175,97.8091 Z"
         id="path156-9-0-1" />
      <path
         style="fill:#ff0000;fill-opacity:0;stroke:#000000;stroke-width:2.22593;stroke-linejoin:round;stroke-dasharray:none;stroke-opacity:1"
         d="M 122.963,18.1364 118.682,-71.5618 40.2721,-120.802 -3.90776,-61.5362 47.1978,24.3326 Z"
         id="path157-0-3-7" />
    </g>
    <g
       transform="matrix(0.264583,0,0,0.264583,127.58632,231.09453)"
       id="g169-5-2-5"
       style="opacity:0.2;stroke-width:2.22593;stroke-dasharray:none">
      <path
         style="fill:#ff0000;fill-opacity:0;stroke:#000000;stroke-width:2.22593;stroke-linejoin:round;stroke-dasharray:none;stroke-opacity:1"
         d="M -47.1978,-24.3326 13.5175,-97.8091 102.147,-57.3513 96.2079,41.1295 3.90776,61.5362 Z"
         id="path158-2-6-5" />
      <path
         style="fill:#ff0000;fill-opacity:0;stroke:#000000;stroke-width:2.22593;stroke-linejoin:round;stroke-dasharray:none;stroke-opacity:1"
         d="M -47.1978,-24.3326 3.90776,61.5362 -40.2721,120.802 -118.682,71.5618 l -4.281,-89.6982 z"
         id="path159-2-9-4" />
      <path
         style="fill:#ff0000;fill-opacity:0;stroke:#000000;stroke-width:2.22593;stroke-linejoin:round;stroke-dasharray:none;stroke-opacity:1"
         d="m 13.5175,-97.8091 -60.7153,73.4765 -75.7652,6.1962 13.89,-69.6471 84.3497,-49.2405 z"
         id="path160-7-4-1" />
      <path
         style="fill:#ff0000;fill-opacity:0;stroke:#000000;stroke-width:2.22593;stroke-linejoin:round;stroke-dasharray:none;stroke-opacity:1"
         d="M 3.90776,61.5362 96.2079,41.1295 109.073,87.7835 24.7233,137.024 -40.2721,120.802 Z"
         id="path161-3-1-8" />
      <path
         style="fill:#ff0000;fill-opacity:0;stroke:#000000;stroke-width:2.22593;stroke-linejoin:round;stroke-dasharray:none;stroke-opacity:1"
         d="m 102.147,-57.3513 -88.6295,-40.4578 -38.2408,-39.2149 64.9954,16.222 78.4099,49.2402 z"
         id="path162-7-3-8" />
      <path
         style="fill:#ff0000;fill-opacity:0;stroke:#000000;stroke-width:2.22593;stroke-linejoin:round;stroke-dasharray:none;stroke-opacity:1"
         d="m 96.2079,41.1295 5.9391,-98.4808 16.535,-14.2105 4.281,89.6982 -13.89,69.6471 z"
         id="path163-9-7-3" />
      <path
         style="fill:#ff0000;fill-opacity:0;stroke:#000000;stroke-width:2.22593;stroke-linejoin:round;stroke-dasharray:none;stroke-opacity:1"
         d="m -109.073,-87.7835 -13.89,69.6471 4.281,89.6982 16.535,-14.2105 5.9391,-98.4808 z"
         id="path164-0-8-5" />
      <path
         style="fill:#ff0000;fill-opacity:0;stroke:#000000;stroke-width:2.22593;stroke-linejoin:round;stroke-dasharray:none;stroke-opacity:1"
         d="M -118.682,71.5618 -40.2721,120.802 24.7233,137.024 -13.5175,97.8091 -102.147,57.3513 Z"
         id="path165-2-8-2" />
      <path
         style="fill:#ff0000;fill-opacity:0;stroke:#000000;stroke-width:2.22593;stroke-linejoin:round;stroke-dasharray:none;stroke-opacity:1"
         d="m 40.2721,-120.802 -64.9954,-16.222 -84.3497,49.2405 12.8651,46.654 92.30014,-20.4067 z"
         id="path166-3-3-2" />
      <path
         style="fill:#ff0000;fill-opacity:0;stroke:#000000;stroke-width:2.22593;stroke-linejoin:round;stroke-dasharray:none;stroke-opacity:1"
         d="m -3.90776,-61.5362 -92.30014,20.4067 -5.9391,98.4808 88.6295,40.4578 60.7153,-73.4765 z"
         id="path167-9-8-6" />
      <path
         style="fill:#ff0000;fill-opacity:0;stroke:#000000;stroke-width:2.22593;stroke-linejoin:round;stroke-dasharray:none;stroke-opacity:1"
         d="M 24.7233,137.024 109.073,87.7835 122.963,18.1364 47.1978,24.3326 -13.5175,97.8091 Z"
         id="path168-9-1-6" />
      <path
         style="fill:#ff0000;fill-opacity:0;stroke:#000000;stroke-width:2.22593;stroke-linejoin:round;stroke-dasharray:none;stroke-opacity:1"
         d="M 122.963,18.1364 118.682,-71.5618 40.2721,-120.802 -3.90776,-61.5362 47.1978,24.3326 Z"
         id="path169-7-5-7" />
    </g>
  </g>
  <g
     id="g3-8-6-1"
     transform="matrix(0.44925115,0,0,0.44925115,90.54022,-87.367532)"
     style="stroke-width:0.588943;stroke-dasharray:none">
    <g
       transform="matrix(0.264583,0,0,0.264583,127.58632,231.09453)"
       id="g157-0-4-5-8"
       style="stroke-width:2.22593;stroke-dasharray:none">
      <path
         style="fill:#ff0000;fill-opacity:0;stroke:#000000;stroke-width:2.22593;stroke-linejoin:round;stroke-dasharray:none;stroke-opacity:1"
         d="m -109.073,-87.7835 -13.89,69.6471 4.281,89.6982 16.535,-14.2105 5.9391,-98.4808 z"
         id="path152-2-8-9-7" />
      <path
         style="fill:#ff0000;fill-opacity:0;stroke:#000000;stroke-width:2.22593;stroke-linejoin:round;stroke-dasharray:none;stroke-opacity:1"
         d="M -118.682,71.5618 -40.2721,120.802 24.7233,137.024 -13.5175,97.8091 -102.147,57.3513 Z"
         id="path153-4-0-5-8" />
      <path
         style="fill:#ff0000;fill-opacity:0;stroke:#000000;stroke-width:2.22593;stroke-linejoin:round;stroke-dasharray:none;stroke-opacity:1"
         d="m 40.2721,-120.802 -64.9954,-16.222 -84.3497,49.2405 12.8651,46.654 92.30014,-20.4067 z"
         id="path154-8-4-4-7" />
      <path
         style="fill:#ff0000;fill-opacity:0;stroke:#000000;stroke-width:2.22593;stroke-linejoin:round;stroke-dasharray:none;stroke-opacity:1"
         d="m -3.90776,-61.5362 -92.30014,20.4067 -5.9391,98.4808 88.6295,40.4578 60.7153,-73.4765 z"
         id="path155-3-6-9-7" />
      <path
         style="fill:#ff0000;fill-opacity:0;stroke:#000000;stroke-width:2.22593;stroke-linejoin:round;stroke-dasharray:none;stroke-opacity:1"
         d="M 24.7233,137.024 109.073,87.7835 122.963,18.1364 47.1978,24.3326 -13.5175,97.8091 Z"
         id="path156-9-0-1-4" />
      <path
         style="fill:#ff0000;fill-opacity:0;stroke:#000000;stroke-width:2.22593;stroke-linejoin:round;stroke-dasharray:none;stroke-opacity:1"
         d="M 122.963,18.1364 118.682,-71.5618 40.2721,-120.802 -3.90776,-61.5362 47.1978,24.3326 Z"
         id="path157-0-3-7-4" />
    </g>
    <g
       transform="matrix(0.264583,0,0,0.264583,127.58632,231.09453)"
       id="g169-5-2-5-9"
       style="opacity:0.2;stroke-width:2.22593;stroke-dasharray:none">
      <path
         style="fill:#ff0000;fill-opacity:0;stroke:#000000;stroke-width:2.22593;stroke-linejoin:round;stroke-dasharray:none;stroke-opacity:1"
         d="M -47.1978,-24.3326 13.5175,-97.8091 102.147,-57.3513 96.2079,41.1295 3.90776,61.5362 Z"
         id="path158-2-6-5-1" />
      <path
         style="fill:#ff0000;fill-opacity:0;stroke:#000000;stroke-width:2.22593;stroke-linejoin:round;stroke-dasharray:none;stroke-opacity:1"
         d="M -47.1978,-24.3326 3.90776,61.5362 -40.2721,120.802 -118.682,71.5618 l -4.281,-89.6982 z"
         id="path159-2-9-4-5" />
      <path
         style="fill:#ff0000;fill-opacity:0;stroke:#000000;stroke-width:2.22593;stroke-linejoin:round;stroke-dasharray:none;stroke-opacity:1"
         d="m 13.5175,-97.8091 -60.7153,73.4765 -75.7652,6.1962 13.89,-69.6471 84.3497,-49.2405 z"
         id="path160-7-4-1-5" />
      <path
         style="fill:#ff0000;fill-opacity:0;stroke:#000000;stroke-width:2.22593;stroke-linejoin:round;stroke-dasharray:none;stroke-opacity:1"
         d="M 3.90776,61.5362 96.2079,41.1295 109.073,87.7835 24.7233,137.024 -40.2721,120.802 Z"
         id="path161-3-1-8-5" />
      <path
         style="fill:#ff0000;fill-opacity:0;stroke:#000000;stroke-width:2.22593;stroke-linejoin:round;stroke-dasharray:none;stroke-opacity:1"
         d="m 102.147,-57.3513 -88.6295,-40.4578 -38.2408,-39.2149 64.9954,16.222 78.4099,49.2402 z"
         id="path162-7-3-8-8" />
      <path
         style="fill:#ff0000;fill-opacity:0;stroke:#000000;stroke-width:2.22593;stroke-linejoin:round;stroke-dasharray:none;stroke-opacity:1"
         d="m 96.2079,41.1295 5.9391,-98.4808 16.535,-14.2105 4.281,89.6982 -13.89,69.6471 z"
         id="path163-9-7-3-2" />
      <path
         style="fill:#ff0000;fill-opacity:0;stroke:#000000;stroke-width:2.22593;stroke-linejoin:round;stroke-dasharray:none;stroke-opacity:1"
         d="m -109.073,-87.7835 -13.89,69.6471 4.281,89.6982 16.535,-14.2105 5.9391,-98.4808 z"
         id="path164-0-8-5-9" />
      <path
         style="fill:#ff0000;fill-opacity:0;stroke:#000000;stroke-width:2.22593;stroke-linejoin:round;stroke-dasharray:none;stroke-opacity:1"
         d="M -118.682,71.5618 -40.2721,120.802 24.7233,137.024 -13.5175,97.8091 -102.147,57.3513 Z"
         id="path165-2-8-2-8" />
      <path
         style="fill:#ff0000;fill-opacity:0;stroke:#000000;stroke-width:2.22593;stroke-linejoin:round;stroke-dasharray:none;stroke-opacity:1"
         d="m 40.2721,-120.802 -64.9954,-16.222 -84.3497,49.2405 12.8651,46.654 92.30014,-20.4067 z"
         id="path166-3-3-2-2" />
      <path
         style="fill:#ff0000;fill-opacity:0;stroke:#000000;stroke-width:2.22593;stroke-linejoin:round;stroke-dasharray:none;stroke-opacity:1"
         d="m -3.90776,-61.5362 -92.30014,20.4067 -5.9391,98.4808 88.6295,40.4578 60.7153,-73.4765 z"
         id="path167-9-8-6-0" />
      <path
         style="fill:#ff0000;fill-opacity:0;stroke:#000000;stroke-width:2.22593;stroke-linejoin:round;stroke-dasharray:none;stroke-opacity:1"
         d="M 24.7233,137.024 109.073,87.7835 122.963,18.1364 47.1978,24.3326 -13.5175,97.8091 Z"
         id="path168-9-1-6-7" />
      <path
         style="fill:#ff0000;fill-opacity:0;stroke:#000000;stroke-width:2.22593;stroke-linejoin:round;stroke-dasharray:none;stroke-opacity:1"
         d="M 122.963,18.1364 118.682,-71.5618 40.2721,-120.802 -3.90776,-61.5362 47.1978,24.3326 Z"
         id="path169-7-5-7-4" />
    </g>
  </g>
  <g
     id="g9"
     style="stroke:#3584e4"
     transform="translate(-16.85641,-194.43633)">
    <path
       style="fill:none;stroke:#3584e4;stroke-width:0.264583;stroke-miterlimit:4.1;stroke-dasharray:none"
       d="m 105.58879,217.7053 17.75175,-3.92474 -0.82322,-17.25131 -17.75178,3.92471 z"
       id="path4" />
    <path
       style="fill:none;stroke:#3584e4;stroke-width:0.264583;stroke-miterlimit:4.1;stroke-dasharray:none"
       d="m 105.58879,217.7053 7.35471,7.54202 17.75179,-3.92472 -7.35475,-7.54204 v 0"
       id="path5" />
    <path
       style="fill:none;stroke:#3584e4;stroke-width:0.264583;stroke-miterlimit:4.1;stroke-dasharray:none"
       d="m 130.69529,221.3226 -0.82326,-17.25134 -7.35471,-7.54201"
       id="path6" />
    <path
       style="fill:none;stroke:#3584e4;stroke-width:0.264583;stroke-miterlimit:4.1;stroke-dasharray:1.05833, 1.05833;stroke-dashoffset:0"
       d="m 104.76554,200.45396 7.35474,7.54204 17.75175,-3.92474"
       id="path8" />
    <path
       style="fill:none;stroke:#3584e4;stroke-width:0.264583;stroke-miterlimit:4.1;stroke-dasharray:1.05833, 1.05833;stroke-dashoffset:0"
       d="m 112.12028,207.996 0.82322,17.25132"
       id="path9" />
  </g>
  <path
     style="fill:none;stroke:#26a269;stroke-width:0.264583;stroke-miterlimit:4.1;stroke-dasharray:none;stroke-dashoffset:0"
     d="m 89.43833,51.686518 9.82893,16.51483 16.22264,-9.47023 -9.82899,-16.5148 z"
     id="path10" />
  <path
     style="fill:none;stroke:#26a269;stroke-width:0.264583;stroke-miterlimit:4.1;stroke-dasharray:none;stroke-dashoffset:0"
     d="m 89.43833,51.686518 -3.18023,2.73306 9.82899,16.51479 3.18017,-2.73302"
     id="path11" />
  <path
     style="fill:none;stroke:#26a269;stroke-width:0.264583;stroke-miterlimit:4.1;stroke-dasharray:none;stroke-dashoffset:0"
     d="m 96.08709,70.934368 16.22259,-9.47019 3.18022,-2.73306"
     id="path12" />
  <path
     style="fill:none;stroke:#26a269;stroke-width:0.264583;stroke-miterlimit:4.1;stroke-dasharray:1.05833, 1.05833;stroke-dashoffset:0"
     d="m 86.2581,54.419578 16.22265,-9.47023 3.18016,-2.73303"
     id="path13" />
  <path
     style="fill:none;stroke:#26a269;stroke-width:0.264583;stroke-miterlimit:4.1;stroke-dasharray:1.05833, 1.05833;stroke-dashoffset:0"
     d="m 102.48075,44.949348 9.82893,16.51483"
     id="path14" />
  <path
     style="fill:none;stroke:#e5a50a;stroke-width:0.264583;stroke-miterlimit:4.1;stroke-dasharray:none;stroke-dashoffset:0"
     d="m 146.25177,68.201348 1.14226,-18.94045 14.57153,-1.19169 -1.14216,18.94046 z"
     id="path15" />
  <path
     style="fill:none;stroke:#e5a50a;stroke-width:0.264583;stroke-miterlimit:4.1;stroke-dasharray:none;stroke-dashoffset:0"
     d="m 146.25177,68.201348 -12.50029,-3.11986 1.14216,-18.94046 12.50039,3.11987 v 0"
     id="path16" />
  <path
     style="fill:none;stroke:#e5a50a;stroke-width:0.264583;stroke-miterlimit:4.1;stroke-dasharray:none;stroke-dashoffset:0"
     d="m 134.89364,46.141028 14.57163,-1.19168 12.50029,3.11986"
     id="path17" />
  <path
     style="fill:none;stroke:#e5a50a;stroke-width:0.264583;stroke-miterlimit:4.1;stroke-dasharray:1.05833, 1.05833;stroke-dashoffset:0"
     d="m 149.46527,44.949348 -1.14226,18.94045 -14.57153,1.19169"
     id="path18" />
  <path
     style="fill:none;stroke:#e5a50a;stroke-width:0.264583;stroke-miterlimit:4.1;stroke-dasharray:1.05833, 1.05833;stroke-dashoffset:0"
     d="m 148.32301,63.889798 12.50039,3.11987"
     id="path19" />
  <path
     style="fill:none;stroke:#c061cb;stroke-width:0.264583;stroke-miterlimit:4.1;stroke-dasharray:none;stroke-dashoffset:0"
     d="m 153.46865,19.344228 -17.04581,-7.7811 8.49696,-11.39842987 17.04576,7.78110997 z"
     id="path20" />
  <path
     style="fill:none;stroke:#c061cb;stroke-width:0.264583;stroke-miterlimit:4.1;stroke-dasharray:none;stroke-dashoffset:0"
     d="m 136.42284,11.563128 -2.67136,13.39496 17.04576,7.78111 2.67141,-13.39497"
     id="path21" />
  <path
     style="fill:none;stroke:#c061cb;stroke-width:0.264583;stroke-miterlimit:4.1;stroke-dasharray:none;stroke-dashoffset:0"
     d="m 161.96556,7.9458081 -2.67136,13.3949699 -8.49696,11.39842"
     id="path22" />
  <path
     style="fill:none;stroke:#c061cb;stroke-width:0.264583;stroke-miterlimit:4.1;stroke-dasharray:1.05833, 1.05833;stroke-dashoffset:0"
     d="m 144.9198,0.16469813 -2.67141,13.39496987 -8.49691,11.39842"
     id="path23" />
  <path
     style="fill:none;stroke:#c061cb;stroke-width:0.264583;stroke-miterlimit:4.1;stroke-dasharray:1.05833, 1.05833;stroke-dashoffset:0"
     d="m 142.24839,13.559668 17.04581,7.78111"
     id="path24" />
</svg>
