<?xml version="1.0" encoding="UTF-8" standalone="no"?>
<!-- Created with Inkscape (http://www.inkscape.org/) -->

<svg
   width="86.062965mm"
   height="68.685417mm"
   viewBox="0 0 86.062965 68.685417"
   version="1.1"
   id="svg1"
   xmlns="http://www.w3.org/2000/svg"
   xmlns:svg="http://www.w3.org/2000/svg"
   xmlns:ns4="http://www.iki.fi/pav/software/textext/">
  <defs
     id="defs1">
    <linearGradient
       id="swatch213">
      <stop
         style="stop-color:#000000;stop-opacity:1;"
         offset="0"
         id="stop213" />
    </linearGradient>
    <marker
       style="overflow:visible"
       id="marker11-3"
       refX="0"
       refY="0"
       orient="auto-start-reverse"
       markerWidth="1"
       markerHeight="1"
       viewBox="0 0 1 1"
       preserveAspectRatio="xMidYMid">
      <path
         d="M -2,-4 9,0 -2,4 c 2,-2.33 2,-5.66 0,-8 z"
         style="fill:context-stroke;fill-rule:evenodd;stroke:none"
         id="path11-70"
         transform="scale(0.7)" />
    </marker>
  </defs>
  <g
     id="layer1"
     transform="translate(-1774.0313,-10.923163)">
    <path
       style="fill:#3584e4;stroke:#000000;stroke-width:0.264583;marker-end:url(#marker11-3)"
       d="M 1781.2793,79.608581 V 16.855791"
       id="path206-3" />
    <path
       style="fill:#3584e4;stroke:#000000;stroke-width:0.264583;marker-end:url(#marker11-3)"
       d="m 1774.0312,59.686881 h 84.3962"
       id="path211-0" />
    <path
       style="fill:#3584e4;stroke:#000000;stroke-width:0.264583;stroke-dasharray:1.05833, 1.05833;stroke-dashoffset:0"
       d="m 1786.1932,69.745151 54.9396,-54.93961"
       id="path212-0" />
    <path
       style="fill:#3584e4;stroke:#000000;stroke-width:0.264583;stroke-dasharray:1.05833, 1.05833;stroke-dashoffset:0"
       d="m 1841.0393,69.745151 -54.9396,-54.93961"
       id="path212-5-3" />
    <circle
       style="fill:#000000;stroke:none;stroke-width:0.264583;stroke-dasharray:none;stroke-dashoffset:0"
       id="path243-3"
       cx="1813.6161"
       cy="42.322117"
       r="0.79374999" />
    <g
       id="g9446-6"
       transform="matrix(0.352778,0,0,0.352778,1791.4662,15.996911)"
       ns4:version="1.12.0"
       ns4:texconverter="typst"
       ns4:pdfconverter="inkscape"
       ns4:text="$P$"
       ns4:scale="1.0"
       ns4:alignment="middle center"
       ns4:inkscapeversion="1.4.2"
       ns4:jacobian_sqrt="0.352778"
       style="fill:#000000">
      <g
         id="g4578-0"
         style="fill:#000000">
        <g
           transform="translate(70.8661,78.3791)"
           id="g8928-4"
           style="fill:#000000">
          <g
             class="typst-text"
             transform="scale(1,-1)"
             id="g4325-0"
             style="fill:#000000">
            <g
               id="g554-9"
               style="fill:#000000">
              <path
                 d="M 6.105,7.513 H 2.585 C 2.332,7.513 2.211,7.502 2.211,7.2599998 2.211,7.139 2.332,7.084 2.574,7.084 c 0.22,0 0.66,0.033 0.66,-0.143 C 3.234,6.919 3.223,6.853 3.19,6.743 L 1.738,0.902 C 1.6719999,0.65999997 1.562,0.517 1.408,0.462 1.331,0.44 1.133,0.429 0.792,0.429 0.55,0.429 0.44,0.407 0.44,0.176 0.44,0.055 0.506,0 0.649,0 L 2.024,0.033 2.728,0.022 C 2.849,0.022 3.289,0 3.432,0 3.608,0 3.696,0.088 3.696,0.264 3.696,0.374 3.575,0.429 3.3439999,0.429 2.904,0.429 2.684,0.473 2.684,0.572 c 0,0 0.011,0.033 0.033,0.176 l 0.66,2.684 h 1.815 c 0.715,0 1.3969997,0.22 2.0349998,0.649 C 7.942,4.554 8.294,5.137 8.294,5.83 8.294,6.919 7.2599998,7.513 6.105,7.513 Z M 5.764,7.084 c 0.957,0 1.43,-0.33 1.43,-0.99 C 7.194,5.478 6.886,4.653 6.567,4.367 6.149,3.993 5.599,3.806 4.917,3.806 H 3.443 L 4.169,6.71 c 0.088,0.374 0.088,0.374 0.55,0.374 z"
                 id="path6943-2"
                 style="fill:#000000" />
            </g>
          </g>
        </g>
      </g>
      <defs
         id="defs6849-4" />
    </g>
    <circle
       style="fill:#3584e4;stroke:none;stroke-width:0.264583;stroke-dasharray:none;stroke-dashoffset:0"
       id="path243-3-9"
       cx="1809.697"
       cy="30.021797"
       r="0.79374999" />
    <g
       id="g9446-6-8"
       transform="matrix(0.352778,0,0,0.352778,1787.56,3.36285)"
       ns4:version="1.12.0"
       ns4:texconverter="typst"
       ns4:pdfconverter="inkscape"
       ns4:text="$Q$"
       ns4:scale="1.0"
       ns4:alignment="middle center"
       ns4:inkscapeversion="1.4.2"
       ns4:jacobian_sqrt="0.352778"
       style="fill:#3584e4;stroke-width:0">
      <g
         id="g444"
         style="fill:#3584e4;stroke-width:0">
        <g
           transform="translate(70.8661,78.3791)"
           id="g2652"
           style="fill:#3584e4;stroke-width:0">
          <g
             class="typst-text"
             transform="scale(1,-1)"
             id="g6449"
             style="fill:#3584e4;stroke-width:0">
            <g
               id="g7860"
               style="fill:#3584e4;stroke-width:0">
              <path
                 d="m 3.366,-0.264 c 0.319,0 0.66,0.055 1.023,0.154 -0.033,-0.418 -0.044,-0.682 -0.044,-0.781 0,-0.825 0.319,-1.243 0.946,-1.243 0.671,0 1.188,0.539 1.441,1.034 0.275,0.572 0.418,0.946 0.418,1.122 0,0.099 -0.055,0.154 -0.165,0.154 C 6.908,0.176 6.853,0.132 6.82,0.033 6.6549997,-0.473 6.204,-0.99 5.588,-0.99 5.027,-0.99 4.95,-0.539 4.862,0.066 5.786,0.429 6.567,1.056 7.194,1.958 7.821,2.86 8.14,3.795 8.14,4.774 8.14,5.643 7.887,6.347 7.37,6.908 6.853,7.469 6.171,7.755 5.324,7.755 4.741,7.755 4.158,7.612 3.575,7.315 2.387,6.732 1.518,5.808 0.957,4.565 0.682,3.938 0.539,3.322 0.539,2.695 c 0,-1.727 1.122,-2.959 2.827,-2.959 z m 3.729,5.39 C 7.095,4.455 6.93,3.685 6.6,2.794 6.215,1.771 5.621,1.012 4.796,0.528 4.752,0.77 4.686,0.99 4.598,1.188 4.455,1.518 4.191,1.683 3.806,1.683 c -0.605,0 -1.155,-0.55 -1.155,-1.155 0,-0.099 0.011,-0.19800002 0.033,-0.275 -0.737,0.341 -1.1,1.034 -1.1,2.09 0,0.462 0.088,1.023 0.275,1.683 0.385,1.397 1.078,2.387 2.079,2.97 0.473,0.2639998 0.913,0.396 1.32,0.396 1.21,0 1.837,-1.001 1.837,-2.266 z M 3.806,1.353 c 0.407,0 0.616,-0.297 0.616,-0.88 C 4.422,0.374 4.389,0.319 4.323,0.297 4.015,0.16499999 3.718,0.099 3.432,0.099 3.124,0.099 2.97,0.242 2.97,0.528 c 0,0.418 0.418,0.825 0.836,0.825 z"
                 id="path5671"
                 style="fill:#3584e4;stroke-width:0" />
            </g>
          </g>
        </g>
      </g>
      <defs
         id="defs651"
         style="fill:#000000;stroke-width:0" />
    </g>
    <circle
       style="fill:#3584e4;stroke:none;stroke-width:0.264583;stroke-dasharray:none;stroke-dashoffset:0"
       id="path243-3-9-8"
       cx="1837.0382"
       cy="38.374664"
       r="0.79374999" />
    <g
       id="g9446-6-8-2"
       transform="matrix(0.352778,0,0,0.352778,1814.8888,12.006748)"
       ns4:version="1.12.0"
       ns4:texconverter="typst"
       ns4:pdfconverter="inkscape"
       ns4:text="$R$"
       ns4:scale="1.0"
       ns4:alignment="middle center"
       ns4:inkscapeversion="1.4.2"
       ns4:jacobian_sqrt="0.352778"
       style="fill:#3584e4;stroke-width:0">
      <g
         id="g4077"
         style="fill:#3584e4;stroke-width:0">
        <g
           transform="translate(70.8661,78.3791)"
           id="g4960"
           style="fill:#3584e4;stroke-width:0">
          <g
             class="typst-text"
             transform="scale(1,-1)"
             id="g5429"
             style="fill:#3584e4;stroke-width:0">
            <g
               id="g3684"
               style="fill:#3584e4;stroke-width:0">
              <path
                 d="m 8.129,5.841 c 0,0.561 -0.286,0.99 -0.847,1.298 C 6.831,7.392 6.292,7.513 5.687,7.513 H 2.585 C 2.332,7.513 2.222,7.502 2.222,7.249 2.222,7.172 2.255,7.117 2.321,7.106 2.431,7.095 2.519,7.084 2.574,7.084 2.904,7.073 3.091,7.051 3.146,7.04 3.201,7.029 3.234,6.996 3.234,6.941 3.234,6.919 3.223,6.853 3.19,6.743 L 1.738,0.902 C 1.683,0.65999997 1.573,0.506 1.408,0.451 1.331,0.429 1.133,0.418 0.792,0.418 0.55,0.418 0.451,0.407 0.451,0.16500001 0.451,0.044 0.517,-0.011 0.649,0 L 2.013,0.033 3.399,0 c 0.176,-0.011 0.2639999,0.088 0.2639999,0.253 0,0.11 -0.1209999,0.16499998 -0.352,0.16499998 C 2.871,0.41799998 2.651,0.473 2.651,0.572 c 0,0 0.011,0.022 0.033,0.176 L 3.388,3.597 H 4.653 C 5.412,3.597 5.797,3.2779999 5.797,2.651 5.797,2.552 5.742,2.31 5.643,1.914 5.522,1.452 5.467,1.144 5.467,0.979 c 0,-0.836 0.649,-1.221 1.485,-1.221 0.3079998,0 0.605,0.143 0.902,0.418 0.297,0.275 0.451,0.572 0.451,0.88 0,0.11 -0.055,0.165 -0.176,0.165 C 8.052,1.221 7.986,1.166 7.953,1.045 7.832,0.704 7.678,0.451 7.502,0.308 7.3259997,0.16499999 7.161,0.088 6.996,0.088 c -0.253,0 -0.385,0.209 -0.385,0.616 0,0.264 0.033,0.671 0.11,1.232 0.033,0.231 0.044,0.396 0.044,0.517 0,0.583 -0.308,1.012 -0.924,1.276 1.034,0.2529999 2.288,0.99 2.288,2.112 z M 6.699,6.776 C 6.919,6.633 7.029,6.391 7.029,6.05 7.029,5.83 6.985,5.577 6.886,5.2799997 6.5889997,4.378 5.841,3.927 4.642,3.927 H 3.476 L 4.169,6.71 c 0.055,0.231 0.143,0.352 0.264,0.363 0.055,0.011 0.275,0.011 0.66,0.011 0.715,0 1.133,-0.022 1.606,-0.308 z"
                 id="path8590"
                 style="fill:#3584e4;stroke-width:0" />
            </g>
          </g>
        </g>
      </g>
      <defs
         id="defs3582"
         style="fill:#000000;stroke-width:0" />
    </g>
    <g
       id="g9446-2-3-4"
       transform="matrix(0.352778,0,0,0.352778,1829.7656,29.575981)"
       ns4:version="1.12.0"
       ns4:texconverter="typst"
       ns4:pdfconverter="inkscape"
       ns4:text="$x$"
       ns4:scale="1.0"
       ns4:alignment="middle center"
       ns4:inkscapeversion="1.4.2"
       ns4:jacobian_sqrt="0.352778"
       style="fill:#000000">
      <g
         id="g9332-5"
         style="fill:#000000">
        <g
           transform="translate(70.8661,78.3791)"
           id="g9915-7"
           style="fill:#000000">
          <g
             class="typst-text"
             transform="scale(1,-1)"
             id="g5346-1"
             style="fill:#000000">
            <g
               id="g8170-0"
               style="fill:#000000">
              <path
                 d="M 5.797,4.103 C 5.797,4.609 5.302,4.862 4.752,4.862 4.279,4.862 3.905,4.609 3.619,4.103 3.388,4.609 3.003,4.862 2.442,4.862 1.903,4.862 1.4629999,4.609 1.111,4.114 0.814,3.685 0.65999997,3.366 0.65999997,3.157 0.65999997,3.058 0.715,3.003 0.825,3.003 0.924,3.003 0.99,3.058 1.012,3.157 1.221,3.795 1.683,4.5429997 2.42,4.5429997 2.783,4.5429997 2.9589999,4.312 2.9589999,3.861 2.9589999,3.6299999 2.761,2.772 2.376,1.298 2.189,0.561 1.859,0.198 1.386,0.198 c -0.154,0 -0.297,0.033 -0.418,0.088 0.286,0.11 0.429,0.308 0.429,0.594 0,0.286 -0.143,0.429 -0.44,0.429 -0.363,0 -0.638,-0.308 -0.638,-0.671 0,-0.506 0.51699997,-0.759 1.056,-0.759 0.462,0 0.836,0.253 1.133,0.759 0.209,-0.506 0.605,-0.759 1.177,-0.759 0.528,0 0.968,0.253 1.32,0.748 0.297,0.429 0.451,0.748 0.451,0.957 0,0.099 -0.055,0.154 -0.165,0.154 C 5.192,1.738 5.137,1.683 5.104,1.584 4.917,0.957 4.422,0.198 3.707,0.198 c -0.3630001,0 -0.55,0.21999998 -0.55,0.671 0,0.143 0.055,0.4509999 0.176,0.9459999 L 3.707,3.3 c 0.209,0.825 0.55,1.2429997 1.034,1.2429997 0.154,0 0.297,-0.033 0.418,-0.088 -0.297,-0.099 -0.44,-0.297 -0.44,-0.594 0,-0.286 0.154,-0.429 0.451,-0.429 0.352,0 0.627,0.319 0.627,0.6710003 z"
                 id="path2286-6"
                 style="fill:#000000" />
            </g>
          </g>
        </g>
      </g>
      <defs
         id="defs2355-03" />
    </g>
    <g
       id="g9446-2-3-1-8"
       transform="matrix(0.352778,0,0,0.352778,1751.5109,37.047811)"
       ns4:version="1.12.0"
       ns4:texconverter="typst"
       ns4:pdfconverter="inkscape"
       ns4:text="$O$"
       ns4:scale="1.0"
       ns4:alignment="middle center"
       ns4:inkscapeversion="1.4.2"
       ns4:jacobian_sqrt="0.352778"
       style="fill:#000000;stroke-width:0">
      <g
         id="g449-9"
         style="fill:#000000;stroke-width:0">
        <g
           transform="translate(70.8661,78.3791)"
           id="g429-7"
           style="fill:#000000;stroke-width:0">
          <g
             class="typst-text"
             transform="scale(1,-1)"
             id="g7164-5"
             style="fill:#000000;stroke-width:0">
            <g
               id="g1347-5"
               style="fill:#000000;stroke-width:0">
              <path
                 d="M 7.722,2.893 C 7.9969997,3.52 8.14,4.147 8.14,4.785 8.14,5.643 7.887,6.347 7.37,6.908 6.853,7.469 6.171,7.755 5.324,7.755 4.741,7.755 4.158,7.612 3.575,7.3259997 2.387,6.743 1.518,5.819 0.957,4.565 0.682,3.949 0.539,3.333 0.539,2.706 c 0,-0.869 0.253,-1.573 0.77,-2.123 0.517,-0.55 1.199,-0.825 2.057,-0.825 0.572,0 1.1439998,0.143 1.727,0.418 1.199,0.583 2.068,1.4959999 2.629,2.717 z M 7.084,5.2139997 C 7.084,3.751 6.424,2.288 5.72,1.419 5.236,0.814 4.4,0.132 3.432,0.132 c -1.1770001,0 -1.7930001,1.023 -1.7930001,2.266 0,0.385 0.077,0.902 0.2200001,1.529 0.297,1.298 1.045,2.442 2.024,3.036 0.473,0.286 0.935,0.429 1.375,0.429 1.188,0 1.826,-0.946 1.826,-2.1780003 z"
                 id="path8771-2"
                 style="fill:#000000;stroke-width:0" />
            </g>
          </g>
        </g>
      </g>
      <defs
         id="defs6470-4"
         style="fill:#000000;stroke-width:0" />
    </g>
    <g
       id="g9446-2-3-0-4"
       transform="matrix(0.352778,0,0,0.352778,1751.3731,-7.7514187)"
       ns4:version="1.12.0"
       ns4:texconverter="typst"
       ns4:pdfconverter="inkscape"
       ns4:text="$c t$"
       ns4:scale="1.0"
       ns4:alignment="middle center"
       ns4:inkscapeversion="1.4.2"
       ns4:jacobian_sqrt="0.352778"
       style="fill:#000000">
      <g
         id="g3494-7"
         style="fill:#000000">
        <g
           transform="translate(70.8661,78.3791)"
           id="g7480-9"
           style="fill:#000000">
          <g
             class="typst-text"
             transform="scale(1,-1)"
             id="g360-5"
             style="fill:#000000">
            <g
               id="g4945-5"
               style="fill:#000000">
              <path
                 d="m 3.608,3.575 c 0,-0.275 0.143,-0.418 0.44,-0.418 0.396,0 0.649,0.341 0.649,0.737 0,0.6159998 -0.649,0.968 -1.309,0.968 C 2.629,4.862 1.936,4.532 1.342,3.883 0.748,3.234 0.451,2.519 0.451,1.749 c 0,-1.078 0.715,-1.87 1.793,-1.87 0.583,0 1.0999999,0.143 1.551,0.418 C 4.169,0.528 4.444,0.759 4.62,0.99 4.697,1.089 4.73,1.166 4.73,1.199 4.73,1.3199999 4.675,1.386 4.554,1.386 4.499,1.386 4.444,1.342 4.378,1.254 4.015,0.77 3.564,0.462 3.047,0.32999998 2.706,0.242 2.453,0.198 2.266,0.198 1.6389999,0.198 1.331,0.583 1.331,1.342 1.331,2.024 1.65,3.014 1.914,3.487 2.178,3.971 2.739,4.5429997 3.388,4.5429997 3.806,4.5429997 4.092,4.422 4.246,4.191 3.905,4.158 3.608,3.938 3.608,3.575 Z"
                 id="path6895-6"
                 style="fill:#000000" />
            </g>
          </g>
        </g>
        <g
           transform="translate(75.9041,78.3791)"
           id="g3448-1"
           style="fill:#000000">
          <g
             class="typst-text"
             transform="scale(1,-1)"
             id="g6008-5"
             style="fill:#000000">
            <g
               id="g2175-9"
               style="fill:#000000">
              <path
                 d="M 3.6299999,4.609 C 3.6299999,4.708 3.52,4.763 3.289,4.763 H 2.398 c 0.286,1.144 0.429,1.738 0.429,1.782 0,0.231 -0.121,0.341 -0.352,0.341 -0.253,0 -0.407,-0.143 -0.473,-0.429 L 1.595,4.763 H 0.616 C 0.374,4.763 0.253,4.752 0.253,4.521 0.253,4.4 0.363,4.345 0.594,4.345 H 1.485 C 0.946,2.2 0.682,1.067 0.682,0.924 c 0,-0.616 0.418,-1.045 1.034,-1.045 0.418,0 0.781,0.187 1.1,0.572 0.264,0.319 0.451,0.627 0.572,0.924 0.044,0.121 0.066,0.187 0.066,0.22 0,0.099 -0.055,0.154 -0.165,0.154 C 3.201,1.749 3.135,1.694 3.091,1.573 2.717,0.65999997 2.266,0.20899999 1.727,0.20899999 1.54,0.20899999 1.441,0.363 1.441,0.65999997 1.441,0.825 1.4629999,1.001 1.507,1.177 l 0.781,3.168 h 0.979 c 0.286,0 0.3629999,0.022 0.3629999,0.264 z"
                 id="path361-1"
                 style="fill:#000000" />
            </g>
          </g>
        </g>
      </g>
      <defs
         id="defs5203-3" />
    </g>
    <ellipse
       style="fill:none;stroke:#000000;stroke-width:0.264583;stroke-dasharray:1.05833, 1.05833"
       id="path561"
       cx="1813.5308"
       cy="70.362122"
       rx="27.469801"
       ry="3.2217033" />
    <ellipse
       style="fill:none;stroke:#000000;stroke-width:0.264583;stroke-dasharray:1.05833, 1.05833"
       id="path561-1"
       cx="1813.3514"
       cy="14.275592"
       rx="27.469801"
       ry="3.2217033" />
    <g
       id="g9446-2-3-9-3"
       transform="matrix(0.352778,0,0,0.352778,1801.7415,20.695184)"
       ns4:version="1.12.0"
       ns4:texconverter="typst"
       ns4:pdfconverter="inkscape"
       ns4:text="$&quot;light rays&quot;\n$"
       ns4:scale="1.0"
       ns4:alignment="middle center"
       ns4:inkscapeversion="1.4.2"
       ns4:jacobian_sqrt="0.352778"
       style="fill:#000000;stroke-width:0">
      <g
         id="g7459"
         style="fill:#000000;stroke-width:0">
        <g
           transform="translate(70.8661,78.3791)"
           id="g1621"
           style="fill:#000000;stroke-width:0">
          <g
             class="typst-text"
             transform="scale(1,-1)"
             id="g2200"
             style="fill:#000000;stroke-width:0">
            <g
               id="g4533"
               style="fill:#000000;stroke-width:0">
              <path
                 d="M 1.584,0.033 2.805,0 V 0.429 C 2.409,0.429 2.167,0.44 2.09,0.484 2.013,0.528 1.98,0.65999997 1.98,0.869 V 7.634 L 0.363,7.513 V 7.095 C 0.748,7.095 0.99,7.062 1.067,6.996 1.144,6.93 1.188,6.776 1.188,6.523 V 0.869 C 1.188,0.65999997 1.155,0.528 1.078,0.484 1.001,0.44 0.759,0.429 0.363,0.429 V 0 Z"
                 id="path2948"
                 style="fill:#000000;stroke-width:0" />
            </g>
            <g
               transform="translate(3.058)"
               id="g7699"
               style="fill:#000000;stroke-width:0">
              <path
                 d="m 2.134,6.611 c 0,0.33 -0.275,0.6159998 -0.605,0.6159998 -0.33,0 -0.616,-0.2859998 -0.616,-0.6159998 0,-0.33 0.275,-0.627 0.605,-0.627 0.341,0 0.616,0.286 0.616,0.627 z M 1.573,0.033 2.717,0 V 0.429 C 2.354,0.429 2.134,0.451 2.068,0.495 2.002,0.539 1.98,0.65999997 1.98,0.858 V 4.895 L 0.407,4.763 V 4.345 C 0.77,4.345 1.001,4.312 1.078,4.257 1.155,4.202 1.188,4.048 1.188,3.795 V 0.869 C 1.188,0.65999997 1.155,0.528 1.078,0.484 1.001,0.44 0.759,0.429 0.363,0.429 V 0 Z"
                 id="path7282"
                 style="fill:#000000;stroke-width:0" />
            </g>
            <g
               transform="translate(6.116)"
               id="g2977"
               style="fill:#000000;stroke-width:0">
              <path
                 d="M 4.741,4.983 C 4.323,4.983 3.938,4.818 3.586,4.488 3.256,4.741 2.882,4.862 2.453,4.862 1.507,4.862 0.649,4.158 0.649,3.234 0.649,2.772 0.814,2.398 1.144,2.112 0.935,1.848 0.825,1.551 0.825,1.21 0.825,0.792 0.968,0.473 1.243,0.264 0.781,0.11 0.308,-0.286 0.308,-0.847 c 0,-0.4729999 0.308,-0.847 0.913,-1.111 0.462,-0.209 0.968,-0.308 1.518,-0.308 0.561,0 1.078,0.099 1.54,0.308 0.605,0.264 0.9019998,0.6380001 0.9019998,1.133 C 5.1809998,-0.242 4.939,0.187 4.455,0.462 3.949,0.737 3.388,0.77 2.574,0.77 2.09,0.77 1.826,0.77 1.771,0.781 1.4629999,0.825 1.243,1.122 1.243,1.4629999 1.243,1.628 1.287,1.782 1.386,1.914 1.694,1.705 2.046,1.595 2.453,1.595 c 0.946,0 1.793,0.704 1.793,1.628 0,0.429 -0.143,0.781 -0.429,1.056 C 4.092,4.532 4.389,4.653 4.708,4.653 4.653,4.598 4.62,4.5099998 4.62,4.4 c 0,-0.242 0.121,-0.363 0.363,-0.363 0.2309997,0 0.352,0.121 0.352,0.374 0,0.341 -0.264,0.572 -0.594,0.572 z M 2.453,4.521 C 3.047,4.521 3.3439999,4.092 3.3439999,3.234 3.3439999,2.365 3.047,1.925 2.453,1.925 c -0.605,0 -0.902,0.429 -0.902,1.298 0,0.869 0.297,1.298 0.902,1.298 z M 1.804,0.044 h 0.638 c 0.572,0 1.034,-0.033 1.386,-0.11 0.473,-0.09899999 0.704,-0.363 0.704,-0.781 0,-0.352 -0.22,-0.627 -0.66,-0.836 -0.341,-0.165 -0.715,-0.242 -1.122,-0.242 -0.396,0 -0.77,0.077 -1.122,0.242 -0.451,0.209 -0.671,0.484 -0.671,0.836 0,0.462 0.396,0.891 0.847,0.891 z"
                 id="path5750"
                 style="fill:#000000;stroke-width:0" />
            </g>
            <g
               transform="translate(11.616)"
               id="g8356"
               style="fill:#000000;stroke-width:0">
              <path
                 d="m 3.454,4.565 c 0.495,0 0.748,-0.385 0.748,-1.166 V 0.869 C 4.202,0.65999997 4.169,0.528 4.092,0.484 4.015,0.44 3.773,0.429 3.366,0.429 V 0 L 4.631,0.033 5.8849998,0 V 0.429 C 5.533,0.429 5.302,0.44 5.192,0.473 5.082,0.506 5.038,0.583 5.038,0.704 v 2.079 c 0,0.5279999 -0.011,0.891 -0.044,1.1 C 4.884,4.554 4.389,4.895 3.52,4.895 2.849,4.895 2.343,4.587 2.002,3.971 V 7.634 L 0.352,7.513 V 7.095 C 0.748,7.095 0.99,7.062 1.078,6.996 1.166,6.93 1.199,6.776 1.199,6.523 V 0.869 C 1.199,0.65999997 1.155,0.528 1.078,0.484 1.001,0.44 0.759,0.429 0.352,0.429 V 0 L 1.617,0.033 2.871,0 V 0.429 C 2.464,0.429 2.233,0.44 2.156,0.484 2.079,0.528 2.035,0.65999997 2.035,0.869 v 2.002 c 0,0.891 0.561,1.694 1.419,1.694 z"
                 id="path6265"
                 style="fill:#000000;stroke-width:0" />
            </g>
            <g
               transform="translate(17.732)"
               id="g6579"
               style="fill:#000000;stroke-width:0">
              <path
                 d="m 3.652,1.386 v 0.66 H 3.3 V 1.408 C 3.3,0.858 3.102,0.242 2.618,0.242 2.167,0.242 1.947,0.616 1.947,1.364 V 4.345 H 3.476 V 4.763 H 1.947 V 6.765 H 1.595 C 1.584,6.402 1.551,6.083 1.474,5.797 1.287,5.071 0.858,4.697 0.20899999,4.664 V 4.345 H 1.122 V 1.386 c 0,-0.649 0.1979999,-1.067 0.583,-1.276 0.297,-0.154 0.572,-0.231 0.847,-0.231 0.7259999,0 1.1,0.726 1.1,1.507 z"
                 id="path9206"
                 style="fill:#000000;stroke-width:0" />
            </g>
            <g
               transform="translate(25.663)"
               id="g5135"
               style="fill:#000000;stroke-width:0">
              <path
                 d="m 4.004,4.158 c 0,0.429 -0.407,0.704 -0.836,0.704 -0.5610001,0 -0.99,-0.33 -1.276,-1.001 V 4.862 L 0.308,4.741 V 4.323 C 0.693,4.323 0.924,4.29 1.012,4.224 1.1,4.158 1.144,4.015 1.144,3.762 V 0.869 C 1.144,0.65999997 1.111,0.528 1.034,0.484 0.957,0.44 0.715,0.418 0.308,0.418 V 0 L 1.573,0.033 C 2.035,0.044 2.508,0.033 2.981,0 V 0.41799998 H 2.717 c -0.363,0 -0.594,0.033 -0.671,0.088 -0.077,0.055 -0.11,0.187 -0.11,0.385 V 2.552 c 0,0.473 0.088,0.902 0.253,1.265 C 2.409,4.29 2.728,4.532 3.157,4.5429997 3.047,4.433 2.992,4.301 2.992,4.147 c 0,-0.341 0.165,-0.506 0.506,-0.506 0.297,0 0.506,0.231 0.506,0.517 z"
                 id="path9009"
                 style="fill:#000000;stroke-width:0" />
            </g>
            <g
               transform="translate(29.975)"
               id="g3431"
               style="fill:#000000;stroke-width:0">
              <path
                 d="M 5.313,1.001 V 1.65 H 4.961 V 1.001 C 4.961,0.572 4.84,0.352 4.609,0.352 4.389,0.352 4.257,0.627 4.257,0.847 V 3.014 C 4.257,3.399 4.213,3.685 4.136,3.883 3.872,4.532 3.113,4.928 2.343,4.928 1.496,4.928 0.65999997,4.455 0.65999997,3.6629999 0.65999997,3.3 0.847,3.113 1.21,3.113 c 0.363,0 0.539,0.176 0.539,0.539 0,0.319 -0.165,0.506 -0.506,0.539 0.242,0.275 0.605,0.418 1.078,0.418 0.682,0 1.1,-0.6270001 1.1,-1.342 V 2.904 C 2.563,2.849 1.914,2.717 1.4629999,2.508 0.726,2.167 0.352,1.694 0.352,1.067 c 0,-0.286 0.11,-0.528 0.319,-0.715 0.352,-0.319 0.836,-0.473 1.452,-0.473 0.649,0 1.111,0.275 1.397,0.836 0.077,-0.418 0.385,-0.781 0.858,-0.781 0.583,0 0.935,0.462 0.935,1.067 z M 2.2,0.198 c -0.506,0 -0.924,0.374 -0.924,0.88 0,1.023 1.067,1.463 2.145,1.518 V 1.551 C 3.421,0.814 2.937,0.198 2.2,0.198 Z"
                 id="path4438"
                 style="fill:#000000;stroke-width:0" />
            </g>
            <g
               transform="translate(35.475)"
               id="g1570"
               style="fill:#000000;stroke-width:0">
              <path
                 d="m 1.243,-2.2549999 c 0.605,0 1.089,0.4179999 1.43,1.2649999 l 1.903,4.642 c 0.187,0.44 0.517,0.66 1.012,0.66 V 4.741 C 5.225,4.708 4.939,4.697 4.73,4.708 L 3.751,4.741 V 4.323 C 4.092,4.312 4.257,4.169 4.257,3.894 4.257,3.828 4.235,3.751 4.191,3.652 L 3.146,1.078 1.98,3.894 C 1.947,3.982 1.925,4.048 1.914,4.081 c 0,0.154 0.209,0.231 0.616,0.231 V 4.741 L 1.298,4.708 C 1.034,4.697 0.671,4.708 0.20899999,4.741 V 4.312 C 0.792,4.312 0.935,4.334 1.089,3.96 L 2.706,0.011 2.442,-0.605 c -0.297,-0.704 -0.506,-1.32 -1.199,-1.32 -0.154,0 -0.286,0.044 -0.40700003,0.121 C 1.089,-1.749 1.21,-1.584 1.21,-1.3199999 1.21,-0.99 1.045,-0.825 0.704,-0.825 0.374,-0.825 0.20899999,-0.99 0.20899999,-1.331 0.20899999,-1.87 0.704,-2.2549999 1.243,-2.2549999 Z"
                 id="path8437"
                 style="fill:#000000;stroke-width:0" />
            </g>
            <g
               transform="translate(41.283)"
               id="g6229"
               style="fill:#000000;stroke-width:0">
              <path
                 d="M 3.96,1.43 C 3.96,2.266 3.388,2.794 2.2549999,3.014 1.738,3.113 1.408,3.234 1.232,3.355 1.056,3.476 0.968,3.652 0.968,3.861 c 0,0.517 0.385,0.77 1.155,0.77 0.748,0 1.1549999,-0.418 1.21,-1.265 0.011,-0.088 0.066,-0.132 0.176,-0.132 0.1209999,0 0.187,0.099 0.187,0.297 V 4.62 C 3.696,4.829 3.641,4.928 3.531,4.928 3.41,4.928 3.245,4.73 3.135,4.642 2.86,4.829 2.519,4.928 2.123,4.928 1.144,4.928 0.363,4.488 0.363,3.553 0.363,3.179 0.517,2.86 0.83599997,2.6069999 1.221,2.288 1.584,2.222 2.277,2.101 2.992,1.958 3.355,1.6389999 3.355,1.144 3.355,0.517 2.97,0.198 2.189,0.198 1.43,0.198 0.946,0.704 0.737,1.705 0.704,1.848 0.649,1.925 0.55,1.925 0.429,1.925 0.363,1.8149999 0.363,1.606 V 0.187 c 0,-0.209 0.055,-0.308 0.165,-0.308 0.033,0 0.088,0.033 0.176,0.11 0.198,0.17599999 0.11,0.143 0.308,0.34099998 C 1.331,0.033 1.727,-0.121 2.189,-0.121 c 1.045,0 1.771,0.53899998 1.771,1.551 z"
                 id="path4539"
                 style="fill:#000000;stroke-width:0" />
            </g>
          </g>
        </g>
      </g>
      <defs
         id="defs7215"
         style="fill:#000000;stroke-width:0" />
    </g>
    <g
       id="g9446-2-3-9-3-2"
       transform="matrix(0.352778,0,0,0.352778,1770.9597,-5.2222554)"
       ns4:version="1.12.0"
       ns4:texconverter="typst"
       ns4:pdfconverter="inkscape"
       ns4:text="$&quot;future light cone of&quot; P\n$"
       ns4:scale="1.0"
       ns4:alignment="middle center"
       ns4:inkscapeversion="1.4.2"
       ns4:jacobian_sqrt="0.352778"
       style="fill:#000000;stroke-width:0">
      <g
         id="g894"
         style="fill:#000000;stroke-width:0">
        <g
           transform="translate(70.8661,78.3791)"
           id="g594"
           style="fill:#000000;stroke-width:0">
          <g
             class="typst-text"
             transform="scale(1,-1)"
             id="g388"
             style="fill:#000000;stroke-width:0">
            <g
               id="g591"
               style="fill:#000000;stroke-width:0">
              <path
                 d="M 2.915,7.755 C 1.936,7.755 1.21,6.963 1.21,5.984 V 4.774 H 0.363 V 4.356 H 1.21 V 0.869 C 1.21,0.65999997 1.177,0.528 1.1,0.484 1.023,0.44 0.781,0.429 0.374,0.429 V 0 L 1.6389999,0.033 C 2.101,0.044 2.574,0.033 3.047,0 V 0.429 H 2.783 C 2.42,0.429 2.189,0.451 2.112,0.506 2.035,0.561 2.002,0.693 2.002,0.891 V 4.356 H 3.234 V 4.774 H 1.969 v 1.221 c 0,0.6599997 0.341,1.43 0.946,1.43 0.088,0 0.165,-0.011 0.242,-0.033 C 2.992,7.304 2.904,7.15 2.904,6.941 2.904,6.6 3.069,6.424 3.41,6.424 c 0.341,0 0.517,0.176 0.517,0.528 0,0.495 -0.517,0.803 -1.012,0.803 z"
                 id="path1718"
                 style="fill:#000000;stroke-width:0" />
            </g>
            <g
               transform="translate(3.366)"
               id="g1537"
               style="fill:#000000;stroke-width:0">
              <path
                 d="m 2.937,0.198 c -0.759,0 -0.902,0.319 -0.902,1.034 v 3.63 L 0.352,4.741 V 4.323 C 0.781,4.323 1.034,4.279 1.1,4.202 1.166,4.125 1.199,3.85 1.199,3.366 V 1.749 c 0,-0.4290001 0.033,-0.759 0.11,-1.012 0.165,-0.57200001 0.77,-0.858 1.573,-0.858 0.594,0 1.045,0.275 1.353,0.836 V -0.121 L 5.8849998,0 V 0.41799998 C 5.489,0.41799998 5.258,0.44 5.17,0.506 5.082,0.572 5.038,0.726 5.038,0.979 V 4.862 L 3.366,4.741 V 4.323 C 3.751,4.323 3.9819999,4.29 4.07,4.224 4.158,4.158 4.202,4.015 4.202,3.762 V 1.837 C 4.202,0.968 3.74,0.198 2.937,0.198 Z"
                 id="path591"
                 style="fill:#000000;stroke-width:0" />
            </g>
            <g
               transform="translate(9.482)"
               id="g2870"
               style="fill:#000000;stroke-width:0">
              <path
                 d="m 3.652,1.386 v 0.66 H 3.3 V 1.408 C 3.3,0.858 3.102,0.242 2.618,0.242 2.167,0.242 1.947,0.616 1.947,1.364 V 4.345 H 3.476 V 4.763 H 1.947 V 6.765 H 1.595 C 1.584,6.402 1.551,6.083 1.474,5.797 1.287,5.071 0.858,4.697 0.20899999,4.664 V 4.345 H 1.122 V 1.386 c 0,-0.649 0.1979999,-1.067 0.583,-1.276 0.297,-0.154 0.572,-0.231 0.847,-0.231 0.7259999,0 1.1,0.726 1.1,1.507 z"
                 id="path3141"
                 style="fill:#000000;stroke-width:0" />
            </g>
            <g
               transform="translate(13.761)"
               id="g7648"
               style="fill:#000000;stroke-width:0">
              <path
                 d="m 2.937,0.198 c -0.759,0 -0.902,0.319 -0.902,1.034 v 3.63 L 0.352,4.741 V 4.323 C 0.781,4.323 1.034,4.279 1.1,4.202 1.166,4.125 1.199,3.85 1.199,3.366 V 1.749 c 0,-0.4290001 0.033,-0.759 0.11,-1.012 0.165,-0.57200001 0.77,-0.858 1.573,-0.858 0.594,0 1.045,0.275 1.353,0.836 V -0.121 L 5.8849998,0 V 0.41799998 C 5.489,0.41799998 5.258,0.44 5.17,0.506 5.082,0.572 5.038,0.726 5.038,0.979 V 4.862 L 3.366,4.741 V 4.323 C 3.751,4.323 3.9819999,4.29 4.07,4.224 4.158,4.158 4.202,4.015 4.202,3.762 V 1.837 C 4.202,0.968 3.74,0.198 2.937,0.198 Z"
                 id="path942"
                 style="fill:#000000;stroke-width:0" />
            </g>
            <g
               transform="translate(19.877)"
               id="g2030"
               style="fill:#000000;stroke-width:0">
              <path
                 d="m 4.004,4.158 c 0,0.429 -0.407,0.704 -0.836,0.704 -0.5610001,0 -0.99,-0.33 -1.276,-1.001 V 4.862 L 0.308,4.741 V 4.323 C 0.693,4.323 0.924,4.29 1.012,4.224 1.1,4.158 1.144,4.015 1.144,3.762 V 0.869 C 1.144,0.65999997 1.111,0.528 1.034,0.484 0.957,0.44 0.715,0.418 0.308,0.418 V 0 L 1.573,0.033 C 2.035,0.044 2.508,0.033 2.981,0 V 0.41799998 H 2.717 c -0.363,0 -0.594,0.033 -0.671,0.088 -0.077,0.055 -0.11,0.187 -0.11,0.385 V 2.552 c 0,0.473 0.088,0.902 0.253,1.265 C 2.409,4.29 2.728,4.532 3.157,4.5429997 3.047,4.433 2.992,4.301 2.992,4.147 c 0,-0.341 0.165,-0.506 0.506,-0.506 0.297,0 0.506,0.231 0.506,0.517 z"
                 id="path5284"
                 style="fill:#000000;stroke-width:0" />
            </g>
            <g
               transform="translate(24.189)"
               id="g9991"
               style="fill:#000000;stroke-width:0">
              <path
                 d="m 4.565,2.761 c 0,1.265 -0.737,2.167 -1.969,2.167 -0.66,0 -1.21,-0.253 -1.661,-0.77 C 0.517,3.674 0.308,3.091 0.308,2.42 c 0,-0.693 0.231,-1.276 0.693,-1.782 0.4619999,-0.506 1.034,-0.759 1.716,-0.759 0.6269999,0 1.111,0.22 1.441,0.649 0.275,0.363 0.407,0.627 0.407,0.803 0,0.11 -0.066,0.165 -0.187,0.165 C 4.29,1.496 4.235,1.441 4.202,1.3199999 3.96,0.594 3.487,0.231 2.783,0.231 2.288,0.231 1.903,0.462 1.606,0.935 1.397,1.276 1.298,1.793 1.287,2.497 h 2.97 c 0.242,0 0.308,0.022 0.308,0.264 z M 3.586,3.839 C 3.707,3.476 3.762,3.124 3.762,2.805 H 1.298 c 0.033,0.726 0.22,1.221 0.55,1.474 0.275,0.22 0.517,0.33 0.748,0.33 0.495,0 0.825,-0.253 0.99,-0.77 z"
                 id="path4661"
                 style="fill:#000000;stroke-width:0" />
            </g>
            <g
               transform="translate(32.725)"
               id="g9210"
               style="fill:#000000;stroke-width:0">
              <path
                 d="M 1.584,0.033 2.805,0 V 0.429 C 2.409,0.429 2.167,0.44 2.09,0.484 2.013,0.528 1.98,0.65999997 1.98,0.869 V 7.634 L 0.363,7.513 V 7.095 C 0.748,7.095 0.99,7.062 1.067,6.996 1.144,6.93 1.188,6.776 1.188,6.523 V 0.869 C 1.188,0.65999997 1.155,0.528 1.078,0.484 1.001,0.44 0.759,0.429 0.363,0.429 V 0 Z"
                 id="path592"
                 style="fill:#000000;stroke-width:0" />
            </g>
            <g
               transform="translate(35.783)"
               id="g7888"
               style="fill:#000000;stroke-width:0">
              <path
                 d="m 2.134,6.611 c 0,0.33 -0.275,0.6159998 -0.605,0.6159998 -0.33,0 -0.616,-0.2859998 -0.616,-0.6159998 0,-0.33 0.275,-0.627 0.605,-0.627 0.341,0 0.616,0.286 0.616,0.627 z M 1.573,0.033 2.717,0 V 0.429 C 2.354,0.429 2.134,0.451 2.068,0.495 2.002,0.539 1.98,0.65999997 1.98,0.858 V 4.895 L 0.407,4.763 V 4.345 C 0.77,4.345 1.001,4.312 1.078,4.257 1.155,4.202 1.188,4.048 1.188,3.795 V 0.869 C 1.188,0.65999997 1.155,0.528 1.078,0.484 1.001,0.44 0.759,0.429 0.363,0.429 V 0 Z"
                 id="path2653"
                 style="fill:#000000;stroke-width:0" />
            </g>
            <g
               transform="translate(38.841)"
               id="g3823"
               style="fill:#000000;stroke-width:0">
              <path
                 d="M 4.741,4.983 C 4.323,4.983 3.938,4.818 3.586,4.488 3.256,4.741 2.882,4.862 2.453,4.862 1.507,4.862 0.649,4.158 0.649,3.234 0.649,2.772 0.814,2.398 1.144,2.112 0.935,1.848 0.825,1.551 0.825,1.21 0.825,0.792 0.968,0.473 1.243,0.264 0.781,0.11 0.308,-0.286 0.308,-0.847 c 0,-0.4729999 0.308,-0.847 0.913,-1.111 0.462,-0.209 0.968,-0.308 1.518,-0.308 0.561,0 1.078,0.099 1.54,0.308 0.605,0.264 0.9019998,0.6380001 0.9019998,1.133 C 5.1809998,-0.242 4.939,0.187 4.455,0.462 3.949,0.737 3.388,0.77 2.574,0.77 2.09,0.77 1.826,0.77 1.771,0.781 1.4629999,0.825 1.243,1.122 1.243,1.4629999 1.243,1.628 1.287,1.782 1.386,1.914 1.694,1.705 2.046,1.595 2.453,1.595 c 0.946,0 1.793,0.704 1.793,1.628 0,0.429 -0.143,0.781 -0.429,1.056 C 4.092,4.532 4.389,4.653 4.708,4.653 4.653,4.598 4.62,4.5099998 4.62,4.4 c 0,-0.242 0.121,-0.363 0.363,-0.363 0.2309997,0 0.352,0.121 0.352,0.374 0,0.341 -0.264,0.572 -0.594,0.572 z M 2.453,4.521 C 3.047,4.521 3.3439999,4.092 3.3439999,3.234 3.3439999,2.365 3.047,1.925 2.453,1.925 c -0.605,0 -0.902,0.429 -0.902,1.298 0,0.869 0.297,1.298 0.902,1.298 z M 1.804,0.044 h 0.638 c 0.572,0 1.034,-0.033 1.386,-0.11 0.473,-0.09899999 0.704,-0.363 0.704,-0.781 0,-0.352 -0.22,-0.627 -0.66,-0.836 -0.341,-0.165 -0.715,-0.242 -1.122,-0.242 -0.396,0 -0.77,0.077 -1.122,0.242 -0.451,0.209 -0.671,0.484 -0.671,0.836 0,0.462 0.396,0.891 0.847,0.891 z"
                 id="path5814"
                 style="fill:#000000;stroke-width:0" />
            </g>
            <g
               transform="translate(44.341)"
               id="g1713"
               style="fill:#000000;stroke-width:0">
              <path
                 d="m 3.454,4.565 c 0.495,0 0.748,-0.385 0.748,-1.166 V 0.869 C 4.202,0.65999997 4.169,0.528 4.092,0.484 4.015,0.44 3.773,0.429 3.366,0.429 V 0 L 4.631,0.033 5.8849998,0 V 0.429 C 5.533,0.429 5.302,0.44 5.192,0.473 5.082,0.506 5.038,0.583 5.038,0.704 v 2.079 c 0,0.5279999 -0.011,0.891 -0.044,1.1 C 4.884,4.554 4.389,4.895 3.52,4.895 2.849,4.895 2.343,4.587 2.002,3.971 V 7.634 L 0.352,7.513 V 7.095 C 0.748,7.095 0.99,7.062 1.078,6.996 1.166,6.93 1.199,6.776 1.199,6.523 V 0.869 C 1.199,0.65999997 1.155,0.528 1.078,0.484 1.001,0.44 0.759,0.429 0.352,0.429 V 0 L 1.617,0.033 2.871,0 V 0.429 C 2.464,0.429 2.233,0.44 2.156,0.484 2.079,0.528 2.035,0.65999997 2.035,0.869 v 2.002 c 0,0.891 0.561,1.694 1.419,1.694 z"
                 id="path593"
                 style="fill:#000000;stroke-width:0" />
            </g>
            <g
               transform="translate(50.457)"
               id="g833"
               style="fill:#000000;stroke-width:0">
              <path
                 d="m 3.652,1.386 v 0.66 H 3.3 V 1.408 C 3.3,0.858 3.102,0.242 2.618,0.242 2.167,0.242 1.947,0.616 1.947,1.364 V 4.345 H 3.476 V 4.763 H 1.947 V 6.765 H 1.595 C 1.584,6.402 1.551,6.083 1.474,5.797 1.287,5.071 0.858,4.697 0.20899999,4.664 V 4.345 H 1.122 V 1.386 c 0,-0.649 0.1979999,-1.067 0.583,-1.276 0.297,-0.154 0.572,-0.231 0.847,-0.231 0.7259999,0 1.1,0.726 1.1,1.507 z"
                 id="path4233"
                 style="fill:#000000;stroke-width:0" />
            </g>
            <g
               transform="translate(58.388)"
               id="g6366"
               style="fill:#000000;stroke-width:0">
              <path
                 d="m 2.761,4.576 c 0.462,0 0.814,-0.11 1.056,-0.33 C 3.553,4.213 3.366,3.971 3.366,3.718 c 0,-0.363 0.176,-0.539 0.539,-0.539 0.363,0 0.539,0.187 0.539,0.55 0,0.7809998 -0.847,1.199 -1.694,1.199 C 2.068,4.928 1.507,4.686 1.056,4.18 0.605,3.674 0.374,3.069 0.374,2.376 c 0,-0.671 0.231,-1.265 0.682,-1.76 0.451,-0.495 1.001,-0.737 1.672,-0.737 0.5499999,0 0.979,0.154 1.287,0.473 0.253,0.253 0.418,0.506 0.506,0.77 0.033,0.099 0.044,0.165 0.044,0.209 0,0.099 -0.066,0.143 -0.187,0.143 C 4.29,1.474 4.235,1.43 4.202,1.342 3.971,0.605 3.52,0.231 2.827,0.231 2.508,0.231 2.2,0.374 1.892,0.671 1.529,1.012 1.353,1.584 1.353,2.398 c 0,1.1 0.418,2.178 1.408,2.178 z"
                 id="path1022"
                 style="fill:#000000;stroke-width:0" />
            </g>
            <g
               transform="translate(63.272)"
               id="g1095"
               style="fill:#000000;stroke-width:0">
              <path
                 d="m 2.739,-0.121 c 0.682,0 1.254,0.242 1.727,0.726 C 4.939,1.089 5.1809998,1.6719999 5.1809998,2.354 5.1809998,3.047 4.95,3.652 4.488,4.158 4.026,4.664 3.443,4.928 2.75,4.928 2.057,4.928 1.485,4.664 1.012,4.158 0.539,3.652 0.308,3.047 0.308,2.354 0.308,1.6719999 0.539,1.089 1.012,0.605 1.485,0.121 2.068,-0.121 2.739,-0.121 Z M 2.75,0.231 C 2.222,0.231 1.826,0.462 1.551,0.935 1.375,1.243 1.287,1.749 1.287,2.442 1.287,3.113 1.375,3.597 1.54,3.905 1.804,4.378 2.2,4.609 2.739,4.609 3.256,4.609 3.652,4.378 3.927,3.927 4.114,3.619 4.202,3.124 4.202,2.442 4.202,1.166 3.828,0.231 2.75,0.231 Z"
                 id="path594"
                 style="fill:#000000;stroke-width:0" />
            </g>
            <g
               transform="translate(68.772)"
               id="g3036"
               style="fill:#000000;stroke-width:0">
              <path
                 d="M 3.454,4.5429997 C 3.949,4.5429997 4.202,4.158 4.202,3.377 V 0.869 C 4.202,0.65999997 4.169,0.528 4.092,0.484 4.015,0.44 3.773,0.418 3.366,0.418 V 0 L 4.631,0.033 5.8849998,0 V 0.41799998 C 5.533,0.41799998 5.302,0.429 5.192,0.462 5.082,0.495 5.038,0.572 5.038,0.704 v 2.057 c 0,0.5169999 -0.011,0.88 -0.044,1.089 -0.11,0.671 -0.605,1.012 -1.474,1.012 -0.693,0 -1.21,-0.33 -1.551,-0.99 v 0.99 L 0.352,4.741 V 4.323 C 0.748,4.323 0.99,4.29 1.078,4.224 1.166,4.158 1.199,4.015 1.199,3.762 V 0.869 C 1.199,0.65999997 1.155,0.528 1.078,0.484 1.001,0.44 0.759,0.418 0.352,0.418 V 0 L 1.617,0.033 2.871,0 v 0.41799998 c -0.407,0 -0.638,0.022 -0.715,0.066 C 2.079,0.528 2.035,0.65999997 2.035,0.869 v 1.98 c 0,0.891 0.561,1.6939997 1.419,1.6939997 z"
                 id="path6024"
                 style="fill:#000000;stroke-width:0" />
            </g>
            <g
               transform="translate(74.888)"
               id="g9965"
               style="fill:#000000;stroke-width:0">
              <path
                 d="m 4.565,2.761 c 0,1.265 -0.737,2.167 -1.969,2.167 -0.66,0 -1.21,-0.253 -1.661,-0.77 C 0.517,3.674 0.308,3.091 0.308,2.42 c 0,-0.693 0.231,-1.276 0.693,-1.782 0.4619999,-0.506 1.034,-0.759 1.716,-0.759 0.6269999,0 1.111,0.22 1.441,0.649 0.275,0.363 0.407,0.627 0.407,0.803 0,0.11 -0.066,0.165 -0.187,0.165 C 4.29,1.496 4.235,1.441 4.202,1.3199999 3.96,0.594 3.487,0.231 2.783,0.231 2.288,0.231 1.903,0.462 1.606,0.935 1.397,1.276 1.298,1.793 1.287,2.497 h 2.97 c 0.242,0 0.308,0.022 0.308,0.264 z M 3.586,3.839 C 3.707,3.476 3.762,3.124 3.762,2.805 H 1.298 c 0.033,0.726 0.22,1.221 0.55,1.474 0.275,0.22 0.517,0.33 0.748,0.33 0.495,0 0.825,-0.253 0.99,-0.77 z"
                 id="path1912"
                 style="fill:#000000;stroke-width:0" />
            </g>
            <g
               transform="translate(83.424)"
               id="g3401"
               style="fill:#000000;stroke-width:0">
              <path
                 d="m 2.739,-0.121 c 0.682,0 1.254,0.242 1.727,0.726 C 4.939,1.089 5.1809998,1.6719999 5.1809998,2.354 5.1809998,3.047 4.95,3.652 4.488,4.158 4.026,4.664 3.443,4.928 2.75,4.928 2.057,4.928 1.485,4.664 1.012,4.158 0.539,3.652 0.308,3.047 0.308,2.354 0.308,1.6719999 0.539,1.089 1.012,0.605 1.485,0.121 2.068,-0.121 2.739,-0.121 Z M 2.75,0.231 C 2.222,0.231 1.826,0.462 1.551,0.935 1.375,1.243 1.287,1.749 1.287,2.442 1.287,3.113 1.375,3.597 1.54,3.905 1.804,4.378 2.2,4.609 2.739,4.609 3.256,4.609 3.652,4.378 3.927,3.927 4.114,3.619 4.202,3.124 4.202,2.442 4.202,1.166 3.828,0.231 2.75,0.231 Z"
                 id="path8280"
                 style="fill:#000000;stroke-width:0" />
            </g>
            <g
               transform="translate(88.924)"
               id="g260"
               style="fill:#000000;stroke-width:0">
              <path
                 d="M 2.915,7.755 C 1.936,7.755 1.21,6.963 1.21,5.984 V 4.774 H 0.363 V 4.356 H 1.21 V 0.869 C 1.21,0.65999997 1.177,0.528 1.1,0.484 1.023,0.44 0.781,0.429 0.374,0.429 V 0 L 1.6389999,0.033 C 2.101,0.044 2.574,0.033 3.047,0 V 0.429 H 2.783 C 2.42,0.429 2.189,0.451 2.112,0.506 2.035,0.561 2.002,0.693 2.002,0.891 V 4.356 H 3.234 V 4.774 H 1.969 v 1.221 c 0,0.6599997 0.341,1.43 0.946,1.43 0.088,0 0.165,-0.011 0.242,-0.033 C 2.992,7.304 2.904,7.15 2.904,6.941 2.904,6.6 3.069,6.424 3.41,6.424 c 0.341,0 0.517,0.176 0.517,0.528 0,0.495 -0.517,0.803 -1.012,0.803 z"
                 id="path5407"
                 style="fill:#000000;stroke-width:0" />
            </g>
          </g>
        </g>
        <g
           transform="translate(166.808,78.3791)"
           id="g4146"
           style="fill:#000000;stroke-width:0">
          <g
             class="typst-text"
             transform="scale(1,-1)"
             id="g3920"
             style="fill:#000000;stroke-width:0">
            <g
               id="g595"
               style="fill:#000000;stroke-width:0">
              <path
                 d="M 6.105,7.513 H 2.585 C 2.332,7.513 2.211,7.502 2.211,7.2599998 2.211,7.139 2.332,7.084 2.574,7.084 c 0.22,0 0.66,0.033 0.66,-0.143 C 3.234,6.919 3.223,6.853 3.19,6.743 L 1.738,0.902 C 1.6719999,0.65999997 1.562,0.517 1.408,0.462 1.331,0.44 1.133,0.429 0.792,0.429 0.55,0.429 0.44,0.407 0.44,0.176 0.44,0.055 0.506,0 0.649,0 L 2.024,0.033 2.728,0.022 C 2.849,0.022 3.289,0 3.432,0 3.608,0 3.696,0.088 3.696,0.264 3.696,0.374 3.575,0.429 3.3439999,0.429 2.904,0.429 2.684,0.473 2.684,0.572 c 0,0 0.011,0.033 0.033,0.176 l 0.66,2.684 h 1.815 c 0.715,0 1.3969997,0.22 2.0349998,0.649 C 7.942,4.554 8.294,5.137 8.294,5.83 8.294,6.919 7.2599998,7.513 6.105,7.513 Z M 5.764,7.084 c 0.957,0 1.43,-0.33 1.43,-0.99 C 7.194,5.478 6.886,4.653 6.567,4.367 6.149,3.993 5.599,3.806 4.917,3.806 H 3.443 L 4.169,6.71 c 0.088,0.374 0.088,0.374 0.55,0.374 z"
                 id="path7554"
                 style="fill:#000000;stroke-width:0" />
            </g>
          </g>
        </g>
      </g>
      <defs
         id="defs8483"
         style="fill:#000000;stroke-width:0" />
    </g>
    <g
       id="g9446-2-3-9-3-2-0"
       transform="matrix(0.352778,0,0,0.352778,1772.5294,36.6908)"
       ns4:version="1.12.0"
       ns4:texconverter="typst"
       ns4:pdfconverter="inkscape"
       ns4:text="$&quot;past light cone of&quot; P\n$"
       ns4:scale="1.0"
       ns4:alignment="middle center"
       ns4:inkscapeversion="1.4.2"
       ns4:jacobian_sqrt="0.352778"
       style="fill:#000000;stroke-width:0">
      <g
         id="g6937"
         style="fill:#000000;stroke-width:0">
        <g
           transform="translate(70.8661,78.3791)"
           id="g3248"
           style="fill:#000000;stroke-width:0">
          <g
             class="typst-text"
             transform="scale(1,-1)"
             id="g5522"
             style="fill:#000000;stroke-width:0">
            <g
               id="g610"
               style="fill:#000000;stroke-width:0">
              <path
                 d="M 3.2779999,-0.143 C 3.96,-0.143 4.5429997,0.099 5.016,0.594 5.489,1.089 5.731,1.6719999 5.731,2.365 5.731,3.036 5.511,3.608 5.082,4.092 4.631,4.609 4.081,4.862 3.421,4.862 2.86,4.862 2.376,4.642 1.958,4.213 V 4.862 L 0.308,4.741 V 4.323 C 0.715,4.323 0.957,4.301 1.034,4.246 1.111,4.191 1.155,4.048 1.155,3.817 V -1.265 C 1.155,-1.474 1.111,-1.606 1.034,-1.65 0.957,-1.694 0.715,-1.705 0.308,-1.705 v -0.429 l 1.254,0.033 1.265,-0.033 v 0.429 c -0.407,0 -0.638,0.011 -0.715,0.055 -0.077,0.044 -0.1210001,0.176 -0.1210001,0.385 V 0.484 C 2.233,0.143 2.706,-0.143 3.2779999,-0.143 Z m 0.066,4.642 C 3.795,4.499 4.147,4.246 4.422,3.74 4.631,3.3109999 4.741,2.86 4.741,2.365 4.741,1.848 4.62,1.375 4.378,0.946 4.092,0.429 3.707,0.176 3.234,0.176 2.772,0.176 2.409,0.396 2.134,0.825 2.035,0.968 1.9909999,1.111 1.9909999,1.254 V 3.6629999 C 2.31,4.224 2.761,4.499 3.3439999,4.499 Z"
                 id="path5275"
                 style="fill:#000000;stroke-width:0" />
            </g>
            <g
               transform="translate(6.116)"
               id="g8710"
               style="fill:#000000;stroke-width:0">
              <path
                 d="M 5.313,1.001 V 1.65 H 4.961 V 1.001 C 4.961,0.572 4.84,0.352 4.609,0.352 4.389,0.352 4.257,0.627 4.257,0.847 V 3.014 C 4.257,3.399 4.213,3.685 4.136,3.883 3.872,4.532 3.113,4.928 2.343,4.928 1.496,4.928 0.65999997,4.455 0.65999997,3.6629999 0.65999997,3.3 0.847,3.113 1.21,3.113 c 0.363,0 0.539,0.176 0.539,0.539 0,0.319 -0.165,0.506 -0.506,0.539 0.242,0.275 0.605,0.418 1.078,0.418 0.682,0 1.1,-0.6270001 1.1,-1.342 V 2.904 C 2.563,2.849 1.914,2.717 1.4629999,2.508 0.726,2.167 0.352,1.694 0.352,1.067 c 0,-0.286 0.11,-0.528 0.319,-0.715 0.352,-0.319 0.836,-0.473 1.452,-0.473 0.649,0 1.111,0.275 1.397,0.836 0.077,-0.418 0.385,-0.781 0.858,-0.781 0.583,0 0.935,0.462 0.935,1.067 z M 2.2,0.198 c -0.506,0 -0.924,0.374 -0.924,0.88 0,1.023 1.067,1.463 2.145,1.518 V 1.551 C 3.421,0.814 2.937,0.198 2.2,0.198 Z"
                 id="path9701"
                 style="fill:#000000;stroke-width:0" />
            </g>
            <g
               transform="translate(11.616)"
               id="g3904"
               style="fill:#000000;stroke-width:0">
              <path
                 d="M 3.96,1.43 C 3.96,2.266 3.388,2.794 2.2549999,3.014 1.738,3.113 1.408,3.234 1.232,3.355 1.056,3.476 0.968,3.652 0.968,3.861 c 0,0.517 0.385,0.77 1.155,0.77 0.748,0 1.1549999,-0.418 1.21,-1.265 0.011,-0.088 0.066,-0.132 0.176,-0.132 0.1209999,0 0.187,0.099 0.187,0.297 V 4.62 C 3.696,4.829 3.641,4.928 3.531,4.928 3.41,4.928 3.245,4.73 3.135,4.642 2.86,4.829 2.519,4.928 2.123,4.928 1.144,4.928 0.363,4.488 0.363,3.553 0.363,3.179 0.517,2.86 0.83599997,2.6069999 1.221,2.288 1.584,2.222 2.277,2.101 2.992,1.958 3.355,1.6389999 3.355,1.144 3.355,0.517 2.97,0.198 2.189,0.198 1.43,0.198 0.946,0.704 0.737,1.705 0.704,1.848 0.649,1.925 0.55,1.925 0.429,1.925 0.363,1.8149999 0.363,1.606 V 0.187 c 0,-0.209 0.055,-0.308 0.165,-0.308 0.033,0 0.088,0.033 0.176,0.11 0.198,0.17599999 0.11,0.143 0.308,0.34099998 C 1.331,0.033 1.727,-0.121 2.189,-0.121 c 1.045,0 1.771,0.53899998 1.771,1.551 z"
                 id="path9276"
                 style="fill:#000000;stroke-width:0" />
            </g>
            <g
               transform="translate(15.95)"
               id="g611"
               style="fill:#000000;stroke-width:0">
              <path
                 d="m 3.652,1.386 v 0.66 H 3.3 V 1.408 C 3.3,0.858 3.102,0.242 2.618,0.242 2.167,0.242 1.947,0.616 1.947,1.364 V 4.345 H 3.476 V 4.763 H 1.947 V 6.765 H 1.595 C 1.584,6.402 1.551,6.083 1.474,5.797 1.287,5.071 0.858,4.697 0.20899999,4.664 V 4.345 H 1.122 V 1.386 c 0,-0.649 0.1979999,-1.067 0.583,-1.276 0.297,-0.154 0.572,-0.231 0.847,-0.231 0.7259999,0 1.1,0.726 1.1,1.507 z"
                 id="path6490"
                 style="fill:#000000;stroke-width:0" />
            </g>
            <g
               transform="translate(23.881)"
               id="g1470"
               style="fill:#000000;stroke-width:0">
              <path
                 d="M 1.584,0.033 2.805,0 V 0.429 C 2.409,0.429 2.167,0.44 2.09,0.484 2.013,0.528 1.98,0.65999997 1.98,0.869 V 7.634 L 0.363,7.513 V 7.095 C 0.748,7.095 0.99,7.062 1.067,6.996 1.144,6.93 1.188,6.776 1.188,6.523 V 0.869 C 1.188,0.65999997 1.155,0.528 1.078,0.484 1.001,0.44 0.759,0.429 0.363,0.429 V 0 Z"
                 id="path8970"
                 style="fill:#000000;stroke-width:0" />
            </g>
            <g
               transform="translate(26.939)"
               id="g5510"
               style="fill:#000000;stroke-width:0">
              <path
                 d="m 2.134,6.611 c 0,0.33 -0.275,0.6159998 -0.605,0.6159998 -0.33,0 -0.616,-0.2859998 -0.616,-0.6159998 0,-0.33 0.275,-0.627 0.605,-0.627 0.341,0 0.616,0.286 0.616,0.627 z M 1.573,0.033 2.717,0 V 0.429 C 2.354,0.429 2.134,0.451 2.068,0.495 2.002,0.539 1.98,0.65999997 1.98,0.858 V 4.895 L 0.407,4.763 V 4.345 C 0.77,4.345 1.001,4.312 1.078,4.257 1.155,4.202 1.188,4.048 1.188,3.795 V 0.869 C 1.188,0.65999997 1.155,0.528 1.078,0.484 1.001,0.44 0.759,0.429 0.363,0.429 V 0 Z"
                 id="path7191"
                 style="fill:#000000;stroke-width:0" />
            </g>
            <g
               transform="translate(29.997)"
               id="g3374"
               style="fill:#000000;stroke-width:0">
              <path
                 d="M 4.741,4.983 C 4.323,4.983 3.938,4.818 3.586,4.488 3.256,4.741 2.882,4.862 2.453,4.862 1.507,4.862 0.649,4.158 0.649,3.234 0.649,2.772 0.814,2.398 1.144,2.112 0.935,1.848 0.825,1.551 0.825,1.21 0.825,0.792 0.968,0.473 1.243,0.264 0.781,0.11 0.308,-0.286 0.308,-0.847 c 0,-0.4729999 0.308,-0.847 0.913,-1.111 0.462,-0.209 0.968,-0.308 1.518,-0.308 0.561,0 1.078,0.099 1.54,0.308 0.605,0.264 0.9019998,0.6380001 0.9019998,1.133 C 5.1809998,-0.242 4.939,0.187 4.455,0.462 3.949,0.737 3.388,0.77 2.574,0.77 2.09,0.77 1.826,0.77 1.771,0.781 1.4629999,0.825 1.243,1.122 1.243,1.4629999 1.243,1.628 1.287,1.782 1.386,1.914 1.694,1.705 2.046,1.595 2.453,1.595 c 0.946,0 1.793,0.704 1.793,1.628 0,0.429 -0.143,0.781 -0.429,1.056 C 4.092,4.532 4.389,4.653 4.708,4.653 4.653,4.598 4.62,4.5099998 4.62,4.4 c 0,-0.242 0.121,-0.363 0.363,-0.363 0.2309997,0 0.352,0.121 0.352,0.374 0,0.341 -0.264,0.572 -0.594,0.572 z M 2.453,4.521 C 3.047,4.521 3.3439999,4.092 3.3439999,3.234 3.3439999,2.365 3.047,1.925 2.453,1.925 c -0.605,0 -0.902,0.429 -0.902,1.298 0,0.869 0.297,1.298 0.902,1.298 z M 1.804,0.044 h 0.638 c 0.572,0 1.034,-0.033 1.386,-0.11 0.473,-0.09899999 0.704,-0.363 0.704,-0.781 0,-0.352 -0.22,-0.627 -0.66,-0.836 -0.341,-0.165 -0.715,-0.242 -1.122,-0.242 -0.396,0 -0.77,0.077 -1.122,0.242 -0.451,0.209 -0.671,0.484 -0.671,0.836 0,0.462 0.396,0.891 0.847,0.891 z"
                 id="path1114"
                 style="fill:#000000;stroke-width:0" />
            </g>
            <g
               transform="translate(35.497)"
               id="g1609"
               style="fill:#000000;stroke-width:0">
              <path
                 d="m 3.454,4.565 c 0.495,0 0.748,-0.385 0.748,-1.166 V 0.869 C 4.202,0.65999997 4.169,0.528 4.092,0.484 4.015,0.44 3.773,0.429 3.366,0.429 V 0 L 4.631,0.033 5.8849998,0 V 0.429 C 5.533,0.429 5.302,0.44 5.192,0.473 5.082,0.506 5.038,0.583 5.038,0.704 v 2.079 c 0,0.5279999 -0.011,0.891 -0.044,1.1 C 4.884,4.554 4.389,4.895 3.52,4.895 2.849,4.895 2.343,4.587 2.002,3.971 V 7.634 L 0.352,7.513 V 7.095 C 0.748,7.095 0.99,7.062 1.078,6.996 1.166,6.93 1.199,6.776 1.199,6.523 V 0.869 C 1.199,0.65999997 1.155,0.528 1.078,0.484 1.001,0.44 0.759,0.429 0.352,0.429 V 0 L 1.617,0.033 2.871,0 V 0.429 C 2.464,0.429 2.233,0.44 2.156,0.484 2.079,0.528 2.035,0.65999997 2.035,0.869 v 2.002 c 0,0.891 0.561,1.694 1.419,1.694 z"
                 id="path3216"
                 style="fill:#000000;stroke-width:0" />
            </g>
            <g
               transform="translate(41.613)"
               id="g8048"
               style="fill:#000000;stroke-width:0">
              <path
                 d="m 3.652,1.386 v 0.66 H 3.3 V 1.408 C 3.3,0.858 3.102,0.242 2.618,0.242 2.167,0.242 1.947,0.616 1.947,1.364 V 4.345 H 3.476 V 4.763 H 1.947 V 6.765 H 1.595 C 1.584,6.402 1.551,6.083 1.474,5.797 1.287,5.071 0.858,4.697 0.20899999,4.664 V 4.345 H 1.122 V 1.386 c 0,-0.649 0.1979999,-1.067 0.583,-1.276 0.297,-0.154 0.572,-0.231 0.847,-0.231 0.7259999,0 1.1,0.726 1.1,1.507 z"
                 id="path1757"
                 style="fill:#000000;stroke-width:0" />
            </g>
            <g
               transform="translate(49.544)"
               id="g7974"
               style="fill:#000000;stroke-width:0">
              <path
                 d="m 2.761,4.576 c 0.462,0 0.814,-0.11 1.056,-0.33 C 3.553,4.213 3.366,3.971 3.366,3.718 c 0,-0.363 0.176,-0.539 0.539,-0.539 0.363,0 0.539,0.187 0.539,0.55 0,0.7809998 -0.847,1.199 -1.694,1.199 C 2.068,4.928 1.507,4.686 1.056,4.18 0.605,3.674 0.374,3.069 0.374,2.376 c 0,-0.671 0.231,-1.265 0.682,-1.76 0.451,-0.495 1.001,-0.737 1.672,-0.737 0.5499999,0 0.979,0.154 1.287,0.473 0.253,0.253 0.418,0.506 0.506,0.77 0.033,0.099 0.044,0.165 0.044,0.209 0,0.099 -0.066,0.143 -0.187,0.143 C 4.29,1.474 4.235,1.43 4.202,1.342 3.971,0.605 3.52,0.231 2.827,0.231 2.508,0.231 2.2,0.374 1.892,0.671 1.529,1.012 1.353,1.584 1.353,2.398 c 0,1.1 0.418,2.178 1.408,2.178 z"
                 id="path2010"
                 style="fill:#000000;stroke-width:0" />
            </g>
            <g
               transform="translate(54.428)"
               id="g2849"
               style="fill:#000000;stroke-width:0">
              <path
                 d="m 2.739,-0.121 c 0.682,0 1.254,0.242 1.727,0.726 C 4.939,1.089 5.1809998,1.6719999 5.1809998,2.354 5.1809998,3.047 4.95,3.652 4.488,4.158 4.026,4.664 3.443,4.928 2.75,4.928 2.057,4.928 1.485,4.664 1.012,4.158 0.539,3.652 0.308,3.047 0.308,2.354 0.308,1.6719999 0.539,1.089 1.012,0.605 1.485,0.121 2.068,-0.121 2.739,-0.121 Z M 2.75,0.231 C 2.222,0.231 1.826,0.462 1.551,0.935 1.375,1.243 1.287,1.749 1.287,2.442 1.287,3.113 1.375,3.597 1.54,3.905 1.804,4.378 2.2,4.609 2.739,4.609 3.256,4.609 3.652,4.378 3.927,3.927 4.114,3.619 4.202,3.124 4.202,2.442 4.202,1.166 3.828,0.231 2.75,0.231 Z"
                 id="path611"
                 style="fill:#000000;stroke-width:0" />
            </g>
            <g
               transform="translate(59.928)"
               id="g3426"
               style="fill:#000000;stroke-width:0">
              <path
                 d="M 3.454,4.5429997 C 3.949,4.5429997 4.202,4.158 4.202,3.377 V 0.869 C 4.202,0.65999997 4.169,0.528 4.092,0.484 4.015,0.44 3.773,0.418 3.366,0.418 V 0 L 4.631,0.033 5.8849998,0 V 0.41799998 C 5.533,0.41799998 5.302,0.429 5.192,0.462 5.082,0.495 5.038,0.572 5.038,0.704 v 2.057 c 0,0.5169999 -0.011,0.88 -0.044,1.089 -0.11,0.671 -0.605,1.012 -1.474,1.012 -0.693,0 -1.21,-0.33 -1.551,-0.99 v 0.99 L 0.352,4.741 V 4.323 C 0.748,4.323 0.99,4.29 1.078,4.224 1.166,4.158 1.199,4.015 1.199,3.762 V 0.869 C 1.199,0.65999997 1.155,0.528 1.078,0.484 1.001,0.44 0.759,0.418 0.352,0.418 V 0 L 1.617,0.033 2.871,0 v 0.41799998 c -0.407,0 -0.638,0.022 -0.715,0.066 C 2.079,0.528 2.035,0.65999997 2.035,0.869 v 1.98 c 0,0.891 0.561,1.6939997 1.419,1.6939997 z"
                 id="path612"
                 style="fill:#000000;stroke-width:0" />
            </g>
            <g
               transform="translate(66.044)"
               id="g1152"
               style="fill:#000000;stroke-width:0">
              <path
                 d="m 4.565,2.761 c 0,1.265 -0.737,2.167 -1.969,2.167 -0.66,0 -1.21,-0.253 -1.661,-0.77 C 0.517,3.674 0.308,3.091 0.308,2.42 c 0,-0.693 0.231,-1.276 0.693,-1.782 0.4619999,-0.506 1.034,-0.759 1.716,-0.759 0.6269999,0 1.111,0.22 1.441,0.649 0.275,0.363 0.407,0.627 0.407,0.803 0,0.11 -0.066,0.165 -0.187,0.165 C 4.29,1.496 4.235,1.441 4.202,1.3199999 3.96,0.594 3.487,0.231 2.783,0.231 2.288,0.231 1.903,0.462 1.606,0.935 1.397,1.276 1.298,1.793 1.287,2.497 h 2.97 c 0.242,0 0.308,0.022 0.308,0.264 z M 3.586,3.839 C 3.707,3.476 3.762,3.124 3.762,2.805 H 1.298 c 0.033,0.726 0.22,1.221 0.55,1.474 0.275,0.22 0.517,0.33 0.748,0.33 0.495,0 0.825,-0.253 0.99,-0.77 z"
                 id="path614"
                 style="fill:#000000;stroke-width:0" />
            </g>
            <g
               transform="translate(74.58)"
               id="g3717"
               style="fill:#000000;stroke-width:0">
              <path
                 d="m 2.739,-0.121 c 0.682,0 1.254,0.242 1.727,0.726 C 4.939,1.089 5.1809998,1.6719999 5.1809998,2.354 5.1809998,3.047 4.95,3.652 4.488,4.158 4.026,4.664 3.443,4.928 2.75,4.928 2.057,4.928 1.485,4.664 1.012,4.158 0.539,3.652 0.308,3.047 0.308,2.354 0.308,1.6719999 0.539,1.089 1.012,0.605 1.485,0.121 2.068,-0.121 2.739,-0.121 Z M 2.75,0.231 C 2.222,0.231 1.826,0.462 1.551,0.935 1.375,1.243 1.287,1.749 1.287,2.442 1.287,3.113 1.375,3.597 1.54,3.905 1.804,4.378 2.2,4.609 2.739,4.609 3.256,4.609 3.652,4.378 3.927,3.927 4.114,3.619 4.202,3.124 4.202,2.442 4.202,1.166 3.828,0.231 2.75,0.231 Z"
                 id="path615"
                 style="fill:#000000;stroke-width:0" />
            </g>
            <g
               transform="translate(80.08)"
               id="g5854"
               style="fill:#000000;stroke-width:0">
              <path
                 d="M 2.915,7.755 C 1.936,7.755 1.21,6.963 1.21,5.984 V 4.774 H 0.363 V 4.356 H 1.21 V 0.869 C 1.21,0.65999997 1.177,0.528 1.1,0.484 1.023,0.44 0.781,0.429 0.374,0.429 V 0 L 1.6389999,0.033 C 2.101,0.044 2.574,0.033 3.047,0 V 0.429 H 2.783 C 2.42,0.429 2.189,0.451 2.112,0.506 2.035,0.561 2.002,0.693 2.002,0.891 V 4.356 H 3.234 V 4.774 H 1.969 v 1.221 c 0,0.6599997 0.341,1.43 0.946,1.43 0.088,0 0.165,-0.011 0.242,-0.033 C 2.992,7.304 2.904,7.15 2.904,6.941 2.904,6.6 3.069,6.424 3.41,6.424 c 0.341,0 0.517,0.176 0.517,0.528 0,0.495 -0.517,0.803 -1.012,0.803 z"
                 id="path5102"
                 style="fill:#000000;stroke-width:0" />
            </g>
          </g>
        </g>
        <g
           transform="translate(157.964,78.3791)"
           id="g8649"
           style="fill:#000000;stroke-width:0">
          <g
             class="typst-text"
             transform="scale(1,-1)"
             id="g3328"
             style="fill:#000000;stroke-width:0">
            <g
               id="g615"
               style="fill:#000000;stroke-width:0">
              <path
                 d="M 6.105,7.513 H 2.585 C 2.332,7.513 2.211,7.502 2.211,7.2599998 2.211,7.139 2.332,7.084 2.574,7.084 c 0.22,0 0.66,0.033 0.66,-0.143 C 3.234,6.919 3.223,6.853 3.19,6.743 L 1.738,0.902 C 1.6719999,0.65999997 1.562,0.517 1.408,0.462 1.331,0.44 1.133,0.429 0.792,0.429 0.55,0.429 0.44,0.407 0.44,0.176 0.44,0.055 0.506,0 0.649,0 L 2.024,0.033 2.728,0.022 C 2.849,0.022 3.289,0 3.432,0 3.608,0 3.696,0.088 3.696,0.264 3.696,0.374 3.575,0.429 3.3439999,0.429 2.904,0.429 2.684,0.473 2.684,0.572 c 0,0 0.011,0.033 0.033,0.176 l 0.66,2.684 h 1.815 c 0.715,0 1.3969997,0.22 2.0349998,0.649 C 7.942,4.554 8.294,5.137 8.294,5.83 8.294,6.919 7.2599998,7.513 6.105,7.513 Z M 5.764,7.084 c 0.957,0 1.43,-0.33 1.43,-0.99 C 7.194,5.478 6.886,4.653 6.567,4.367 6.149,3.993 5.599,3.806 4.917,3.806 H 3.443 L 4.169,6.71 c 0.088,0.374 0.088,0.374 0.55,0.374 z"
                 id="path622"
                 style="fill:#000000;stroke-width:0" />
            </g>
          </g>
        </g>
      </g>
      <defs
         id="defs839"
         style="fill:#000000;stroke-width:0" />
    </g>
  </g>
</svg>
