<?xml version="1.0" encoding="UTF-8" standalone="no"?>
<!-- Created with Inkscape (http://www.inkscape.org/) -->

<svg
   width="87.587257mm"
   height="87.587273mm"
   viewBox="0 0 87.587257 87.587273"
   version="1.1"
   id="svg1"
   xmlns="http://www.w3.org/2000/svg"
   xmlns:svg="http://www.w3.org/2000/svg"
   xmlns:ns4="http://www.iki.fi/pav/software/textext/">
  <defs
     id="defs1">
    <marker
       orient="auto"
       refY="0"
       refX="0"
       id="DistanceEnd"
       style="overflow:visible"
       markerWidth="1"
       markerHeight="1"
       viewBox="0 0 1 1"
       preserveAspectRatio="xMidYMid">
      <g
         transform="scale(0.6)"
         id="g16">
        <path
           d="m 0,-40 v 0"
           id="path14" />
        <path
           d="M 0,0 -8,5 V -5 Z"
           style="fill:context-stroke;fill-rule:evenodd;stroke:none"
           id="path18" />
        <path
           d="M 0,-8 V 40"
           style="fill:none;stroke:context-stroke;stroke-width:1;stroke-linecap:square"
           id="path19" />
      </g>
    </marker>
    <marker
       orient="auto"
       refY="0"
       refX="0"
       id="DistanceStart"
       style="overflow:visible"
       markerWidth="1"
       markerHeight="1"
       viewBox="0 0 1 1"
       preserveAspectRatio="xMidYMid">
      <g
         transform="scale(0.6)"
         id="g13">
        <path
           d="m 0,-40 v 0"
           id="path11" />
        <path
           d="M 0,0 8,5 V -5 Z"
           style="fill:context-stroke;fill-rule:evenodd;stroke:none"
           id="path12" />
        <path
           d="M 0,-8 V 40"
           style="fill:none;stroke:context-stroke;stroke-width:1;stroke-linecap:square"
           id="path13" />
      </g>
    </marker>
  </defs>
  <g
     id="layer1"
     transform="translate(-48.332913,-35.81086)">
    <circle
       style="opacity:0.25;fill:none;stroke:#000000;stroke-width:0.264583"
       id="path1"
       cx="92.126549"
       cy="79.604492"
       r="43.661343" />
    <circle
       style="opacity:1;fill:#000000;stroke:none;stroke-width:0.264583"
       id="path2"
       cx="92.126549"
       cy="79.604492"
       r="0.52916664" />
    <path
       style="opacity:1;fill:none;stroke:#000000;stroke-width:0.265;stroke-dasharray:1.06, 1.06;stroke-dashoffset:0"
       d="M 92.097068,79.58716 83.1512,50.630413"
       id="path3" />
    <path
       style="opacity:1;fill:none;stroke:#000000;stroke-width:0.264999;stroke-dasharray:1.06, 1.06;stroke-dashoffset:0"
       d="M 92.097068,79.587158 67.711626,88.025112"
       id="path4" />
    <path
       style="opacity:1;fill:none;stroke:#000000;stroke-width:0.264999;stroke-dasharray:1.06, 1.06;stroke-dashoffset:0"
       d="m 92.097068,79.587158 33.395142,4.375258"
       id="path5" />
    <path
       style="opacity:1;fill:none;stroke:#000000;stroke-width:0.264999;stroke-dasharray:none;stroke-dashoffset:0"
       d="m 83.151198,50.630412 c 0,0 -11.096617,4.47468 -14.955284,15.962988 -3.917257,11.662748 -0.484288,21.431712 -0.484288,21.431712"
       id="path6" />
    <path
       style="opacity:0.5;fill:none;stroke:#000000;stroke-width:0.264999;stroke-dasharray:none;stroke-dashoffset:0;marker-start:url(#DistanceStart);marker-end:url(#DistanceEnd)"
       d="m 81.992696,47.467786 c 0,0 -12.556536,3.39614 -17.433244,16.817633 -4.754565,13.085333 -0.232741,24.31744 -0.232741,24.31744"
       id="path6-7" />
    <path
       style="opacity:1;fill:none;stroke:#000000;stroke-width:0.264999;stroke-dasharray:none;stroke-dashoffset:0"
       d="m 67.711626,88.025112 c 0,0 8.834511,4.157173 28.554852,3.238542 17.166512,-0.799666 29.225732,-7.301238 29.225732,-7.301238"
       id="path7" />
    <path
       style="opacity:1;fill:none;stroke:#000000;stroke-width:0.264999;stroke-dasharray:none;stroke-dashoffset:0"
       d="m 83.151198,50.630412 c 0,0 14.184363,-2.756078 27.676822,8.007576 13.49247,10.763652 14.66419,25.324428 14.66419,25.324428"
       id="path8" />
    <g
       id="g838"
       transform="matrix(0.352778,0,0,0.352778,65.800808,56.149306)"
       ns4:version="1.12.0"
       ns4:texconverter="typst"
       ns4:pdfconverter="inkscape"
       ns4:text="$O$"
       ns4:scale="1.0"
       ns4:alignment="middle center"
       ns4:inkscapeversion="1.4.2"
       ns4:jacobian_sqrt="0.352778"
       style="fill:#000000">
      <g
         id="g8559"
         style="fill:#000000">
        <g
           transform="translate(70.8661,78.3791)"
           id="g5663"
           style="fill:#000000">
          <g
             class="typst-text"
             transform="scale(1,-1)"
             id="g1190"
             style="fill:#000000">
            <g
               id="g6563"
               style="fill:#000000">
              <path
                 d="M 7.722,2.893 C 7.9969997,3.52 8.14,4.147 8.14,4.785 8.14,5.643 7.887,6.347 7.37,6.908 6.853,7.469 6.171,7.755 5.324,7.755 4.741,7.755 4.158,7.612 3.575,7.3259997 2.387,6.743 1.518,5.819 0.957,4.565 0.682,3.949 0.539,3.333 0.539,2.706 c 0,-0.869 0.253,-1.573 0.77,-2.123 0.517,-0.55 1.199,-0.825 2.057,-0.825 0.572,0 1.1439998,0.143 1.727,0.418 1.199,0.583 2.068,1.4959999 2.629,2.717 z M 7.084,5.2139997 C 7.084,3.751 6.424,2.288 5.72,1.419 5.236,0.814 4.4,0.132 3.432,0.132 c -1.1770001,0 -1.7930001,1.023 -1.7930001,2.266 0,0.385 0.077,0.902 0.2200001,1.529 0.297,1.298 1.045,2.442 2.024,3.036 0.473,0.286 0.935,0.429 1.375,0.429 1.188,0 1.826,-0.946 1.826,-2.1780003 z"
                 id="path7488"
                 style="fill:#000000" />
            </g>
          </g>
        </g>
      </g>
      <defs
         id="defs8865" />
    </g>
    <g
       id="g6393"
       transform="matrix(0.352778,0,0,0.352778,39.192341,65.999533)"
       ns4:version="1.12.0"
       ns4:texconverter="typst"
       ns4:pdfconverter="inkscape"
       ns4:text="$B$"
       ns4:scale="1.0"
       ns4:alignment="middle center"
       ns4:inkscapeversion="1.4.2"
       ns4:jacobian_sqrt="0.352778"
       style="fill:#000000">
      <g
         id="g9925"
         style="fill:#000000">
        <g
           transform="translate(70.8661,78.3791)"
           id="g5534"
           style="fill:#000000">
          <g
             class="typst-text"
             transform="scale(1,-1)"
             id="g6420"
             style="fill:#000000">
            <g
               id="g2863"
               style="fill:#000000">
              <path
                 d="m 8.316,5.973 c 0,1.001 -0.9900003,1.54 -2.068,1.54 H 2.596 C 2.343,7.513 2.233,7.502 2.233,7.249 2.233,7.073 2.453,7.084 2.585,7.084 2.915,7.073 3.113,7.051 3.168,7.04 3.223,7.029 3.245,6.996 3.245,6.941 3.245,6.919 3.234,6.853 3.201,6.743 L 1.749,0.902 C 1.694,0.65999997 1.584,0.517 1.419,0.462 1.342,0.44 1.144,0.429 0.803,0.429 0.572,0.429 0.462,0.341 0.462,0.16499999 0.462,0.055 0.572,0 0.803,0 H 4.686 C 5.401,0 6.061,0.22 6.6879997,0.649 7.381,1.122 7.733,1.705 7.733,2.387 7.733,3.256 7.018,3.784 6.237,3.938 7.205,4.169 8.316,4.906 8.316,5.973 Z M 6.094,7.084 C 6.853,7.084 7.238,6.732 7.238,6.017 7.238,5.456 7.018,4.994 6.5559998,4.62 6.094,4.246 5.577,4.07 5.016,4.07 H 3.487 l 0.66,2.64 c 0.088,0.374 0.088,0.374 0.55,0.374 z M 6.402,3.289 C 6.5559998,3.036 6.633,2.783 6.633,2.508 6.633,1.936 6.413,1.441 5.962,1.034 5.511,0.627 5.005,0.429 4.422,0.429 H 2.937 c -0.11,0 -0.187,0 -0.231,0.011 -0.066,0 -0.099,0.022 -0.099,0.055 0,0.011 0,0.044 0.011,0.088 0.3409999,1.397 0.605,2.453 0.781,3.157 h 2.024 c 0.473,0 0.792,-0.154 0.979,-0.451 z"
                 id="path5325"
                 style="fill:#000000" />
            </g>
          </g>
        </g>
      </g>
      <defs
         id="defs6267" />
    </g>
    <g
       id="g9760"
       transform="matrix(0.352778,0,0,0.352778,100.51443,59.496874)"
       ns4:version="1.12.0"
       ns4:texconverter="typst"
       ns4:pdfconverter="inkscape"
       ns4:text="$C$"
       ns4:scale="1.0"
       ns4:alignment="middle center"
       ns4:inkscapeversion="1.4.2"
       ns4:jacobian_sqrt="0.352778"
       style="fill:#000000">
      <g
         id="g5113"
         style="fill:#000000">
        <g
           transform="translate(70.8661,78.3791)"
           id="g6489"
           style="fill:#000000">
          <g
             class="typst-text"
             transform="scale(1,-1)"
             id="g6796"
             style="fill:#000000">
            <g
               id="g1141"
               style="fill:#000000">
              <path
                 d="m 1.628,2.398 c 0,1.408 0.616,2.838 1.309,3.63 0.561,0.649 1.529,1.2979997 2.618,1.2979997 1.144,0 1.7049998,-0.8689997 1.7049998,-2.0569997 0,-0.099 -0.033,-0.451 -0.033,-0.55 0,-0.099 0.066,-0.154 0.2090002,-0.154 0.055,0 0.099,0.011 0.132,0.022 0.055,0.077 0.088,0.154 0.11,0.231 L 8.36,7.601 C 8.36,7.7 8.305,7.755 8.195,7.755 8.151,7.755 8.085,7.711 7.9969997,7.612 L 7.282,6.809 C 6.853,7.436 6.248,7.755 5.467,7.755 4.862,7.755 4.268,7.612 3.6629999,7.337 2.442,6.765 1.551,5.863 0.979,4.631 0.693,4.026 0.55,3.41 0.55,2.783 c 0,-0.88 0.275,-1.595 0.836,-2.167 0.561,-0.572 1.276,-0.858 2.156,-0.858 0.869,0 1.661,0.319 2.3759997,0.946 C 6.215,0.957 6.468,1.265 6.677,1.606 6.974,2.101 7.128,2.442 7.128,2.651 7.128,2.75 7.073,2.805 6.952,2.805 6.853,2.805 6.798,2.761 6.776,2.662 6.545,1.947 6.182,1.375 5.687,0.968 5.06,0.451 4.4,0.187 3.718,0.187 c -1.32,0 -2.09,0.891 -2.09,2.211 z"
                 id="path836"
                 style="fill:#000000" />
            </g>
          </g>
        </g>
      </g>
      <defs
         id="defs1550" />
    </g>
    <g
       id="g1091"
       transform="matrix(0.352778,0,0,0.352778,58.603937,20.299622)"
       ns4:version="1.12.0"
       ns4:texconverter="typst"
       ns4:pdfconverter="inkscape"
       ns4:text="$A$"
       ns4:scale="1.0"
       ns4:alignment="middle center"
       ns4:inkscapeversion="1.4.2"
       ns4:jacobian_sqrt="0.352778"
       style="fill:#000000">
      <g
         id="g9967"
         style="fill:#000000">
        <g
           transform="translate(70.8661,78.3791)"
           id="g1965"
           style="fill:#000000">
          <g
             class="typst-text"
             transform="scale(1,-1)"
             id="g4769"
             style="fill:#000000">
            <g
               id="g3044"
               style="fill:#000000">
              <path
                 d="M 1.507,0.033 C 1.705,0.033 2.387,0 2.596,0 2.761,0 2.838,0.088 2.838,0.253 2.838,0.352 2.772,0.41799998 2.629,0.429 2.31,0.44 2.156,0.55 2.156,0.759 c 0,0.099 0.099,0.319 0.308,0.649 0.297,0.495 0.506,0.858 0.649,1.1 H 5.786 C 5.786,2.431 5.797,2.277 5.83,2.035 5.907,1.232 5.9509997,0.792 5.9509997,0.737 5.9509997,0.528 5.709,0.429 5.2139997,0.429 5.005,0.429 4.906,0.341 4.906,0.16499999 4.906,0.055 4.972,0 5.104,0 5.368,0 6.204,0.033 6.468,0.033 6.6879997,0.033 7.469,0 7.689,0 c 0.165,0 0.2419998,0.088 0.2419998,0.264 0,0.11 -0.099,0.165 -0.2969998,0.165 -0.3080003,0 -0.495,0.022 -0.55,0.055 C 7.029,0.517 6.985,0.616 6.974,0.781 L 6.314,7.579 C 6.281,7.788 6.292,7.876 6.061,7.876 5.929,7.876 5.819,7.81 5.742,7.667 L 1.958,1.3199999 C 1.628,0.77 1.188,0.473 0.649,0.429 0.473,0.41799998 0.385,0.32999998 0.385,0.16499999 0.385,0.055 0.451,0 0.572,0 0.748,0 1.331,0.033 1.507,0.033 Z m 3.905,6.314 0.33,-3.41 H 3.377 Z"
                 id="path6960"
                 style="fill:#000000" />
            </g>
          </g>
        </g>
      </g>
      <defs
         id="defs7454" />
    </g>
    <g
       id="g1804"
       transform="matrix(0.12683415,-0.32918903,0.32918903,0.12683415,25.820498,83.077714)"
       ns4:version="1.12.0"
       ns4:texconverter="typst"
       ns4:pdfconverter="inkscape"
       ns4:text="$delta(A, B)$"
       ns4:scale="1.0"
       ns4:alignment="middle center"
       ns4:inkscapeversion="1.4.2"
       ns4:jacobian_sqrt="0.352778"
       style="opacity:0.5;fill:#000000">
      <g
         id="g4424"
         style="fill:#000000">
        <g
           transform="translate(70.8661,70.8661)"
           id="g5583"
           style="fill:#000000">
          <g
             class="typst-group"
             id="g4373"
             style="fill:#000000">
            <g
               id="g5355"
               style="fill:#000000">
              <g
                 transform="translate(0,7.513)"
                 id="g5366"
                 style="fill:#000000">
                <g
                   class="typst-text"
                   transform="scale(1,-1)"
                   id="g4259"
                   style="fill:#000000">
                  <g
                     id="g7504"
                     style="fill:#000000">
                    <path
                       d="M 4.972,7.304 C 4.972,7.469 4.884,7.579 4.708,7.623 4.147,7.766 3.729,7.832 3.465,7.832 2.684,7.832 2.211,7.392 2.211,6.666 2.211,6.237 2.42,5.621 2.849,4.818 1.716,4.532 0.83599997,3.531 0.561,2.42 0.506,2.189 0.473,1.958 0.473,1.749 c 0,-0.418 0.099,-0.792 0.308,-1.111 0.33,-0.506 0.814,-0.759 1.441,-0.759 0.462,0 0.88,0.209 1.265,0.638 C 4.092,1.21 4.4,2.09 4.4,3.135 4.4,3.806 4.18,4.422 3.729,4.983 L 3.652,5.082 C 2.937,6.006 2.585,6.6219997 2.585,6.93 c 0,0.066 0.011,0.121 0.044,0.165 0.11,0.1979997 0.286,0.297 0.539,0.286 0.187,0 0.418,-0.088 0.693,-0.253 C 4.202,6.919 4.411,6.82 4.488,6.82 4.73,6.82 4.972,7.018 4.972,7.304 Z M 1.221,1.441 c 0,0.627 0.154,1.232 0.473,1.826 0.341,0.66 0.781,1.078 1.32,1.2429998 C 3.256,4.092 3.421,3.6629999 3.52,3.234 3.553,3.069 3.564,2.882 3.564,2.695 3.564,2.387 3.531,2.101 3.465,1.826 3.19,0.748 2.772,0.20899999 2.233,0.20899999 1.606,0.20899999 1.221,0.726 1.221,1.441 Z"
                       id="path8137"
                       style="fill:#000000" />
                  </g>
                </g>
              </g>
              <g
                 transform="translate(5.28,7.513)"
                 id="g6874"
                 style="fill:#000000">
                <g
                   class="typst-text"
                   transform="scale(1,-1)"
                   id="g4915"
                   style="fill:#000000">
                  <g
                     id="g4082"
                     style="fill:#000000">
                    <path
                       d="m 3.498,-2.728 c 0.099,0 0.154,0.055 0.154,0.154 0,0.033 -0.022,0.077 -0.055,0.121 -0.572,0.44 -1.034,1.166 -1.375,2.167 C 1.925,0.583 1.771,1.441 1.771,2.288 v 0.924 c 0,0.847 0.154,1.705 0.451,2.574 C 2.563,6.787 3.025,7.513 3.597,7.953 3.63,7.986 3.652,8.03 3.652,8.074 3.652,8.173 3.597,8.228 3.498,8.228 3.487,8.228 3.454,8.217 3.421,8.195 2.761,7.689 2.211,6.941 1.76,5.94 1.331,4.983 1.111,4.081 1.111,3.212 V 2.288 c 0,-0.869 0.22,-1.771 0.649,-2.728 0.451,-1.001 1.001,-1.749 1.661,-2.255 0.033,-0.022 0.066,-0.033 0.077,-0.033 z"
                       id="path9014"
                       style="fill:#000000" />
                  </g>
                </g>
              </g>
              <g
                 transform="translate(9.559,7.513)"
                 id="g4759"
                 style="fill:#000000">
                <g
                   class="typst-text"
                   transform="scale(1,-1)"
                   id="g477"
                   style="fill:#000000">
                  <g
                     id="g5964"
                     style="fill:#000000">
                    <path
                       d="M 1.507,0.033 C 1.705,0.033 2.387,0 2.596,0 2.761,0 2.838,0.088 2.838,0.253 2.838,0.352 2.772,0.41799998 2.629,0.429 2.31,0.44 2.156,0.55 2.156,0.759 c 0,0.099 0.099,0.319 0.308,0.649 0.297,0.495 0.506,0.858 0.649,1.1 H 5.786 C 5.786,2.431 5.797,2.277 5.83,2.035 5.907,1.232 5.9509997,0.792 5.9509997,0.737 5.9509997,0.528 5.709,0.429 5.2139997,0.429 5.005,0.429 4.906,0.341 4.906,0.16499999 4.906,0.055 4.972,0 5.104,0 5.368,0 6.204,0.033 6.468,0.033 6.6879997,0.033 7.469,0 7.689,0 c 0.165,0 0.2419998,0.088 0.2419998,0.264 0,0.11 -0.099,0.165 -0.2969998,0.165 -0.3080003,0 -0.495,0.022 -0.55,0.055 C 7.029,0.517 6.985,0.616 6.974,0.781 L 6.314,7.579 C 6.281,7.788 6.292,7.876 6.061,7.876 5.929,7.876 5.819,7.81 5.742,7.667 L 1.958,1.3199999 C 1.628,0.77 1.188,0.473 0.649,0.429 0.473,0.41799998 0.385,0.32999998 0.385,0.16499999 0.385,0.055 0.451,0 0.572,0 0.748,0 1.331,0.033 1.507,0.033 Z m 3.905,6.314 0.33,-3.41 H 3.377 Z"
                       id="path7615"
                       style="fill:#000000" />
                  </g>
                </g>
              </g>
              <g
                 transform="translate(17.809,7.513)"
                 id="g5568"
                 style="fill:#000000">
                <g
                   class="typst-text"
                   transform="scale(1,-1)"
                   id="g5317"
                   style="fill:#000000">
                  <g
                     id="g5052"
                     style="fill:#000000">
                    <path
                       d="m 1.529,1.166 c -0.352,0 -0.583,-0.264 -0.583,-0.616 0,-0.33 0.253,-0.605 0.583,-0.605 0.154,0 0.2859999,0.044 0.385,0.143 L 1.925,0 c 0,-0.693 -0.231,-1.287 -0.693,-1.76 -0.077,-0.088 -0.121,-0.154 -0.121,-0.198 0,-0.11 0.044,-0.165 0.143,-0.165 0.099,0 0.231,0.1320001 0.4179999,0.385 C 2.046,-1.21 2.233,-0.627 2.233,0 c 0,0.583 -0.198,1.166 -0.704,1.166 z"
                       id="path8493"
                       style="fill:#000000" />
                  </g>
                </g>
              </g>
              <g
                 transform="translate(22.7003,7.513)"
                 id="g5447"
                 style="fill:#000000">
                <g
                   class="typst-text"
                   transform="scale(1,-1)"
                   id="g1202"
                   style="fill:#000000">
                  <g
                     id="g6162"
                     style="fill:#000000">
                    <path
                       d="m 8.316,5.973 c 0,1.001 -0.9900003,1.54 -2.068,1.54 H 2.596 C 2.343,7.513 2.233,7.502 2.233,7.249 2.233,7.073 2.453,7.084 2.585,7.084 2.915,7.073 3.113,7.051 3.168,7.04 3.223,7.029 3.245,6.996 3.245,6.941 3.245,6.919 3.234,6.853 3.201,6.743 L 1.749,0.902 C 1.694,0.65999997 1.584,0.517 1.419,0.462 1.342,0.44 1.144,0.429 0.803,0.429 0.572,0.429 0.462,0.341 0.462,0.16499999 0.462,0.055 0.572,0 0.803,0 H 4.686 C 5.401,0 6.061,0.22 6.6879997,0.649 7.381,1.122 7.733,1.705 7.733,2.387 7.733,3.256 7.018,3.784 6.237,3.938 7.205,4.169 8.316,4.906 8.316,5.973 Z M 6.094,7.084 C 6.853,7.084 7.238,6.732 7.238,6.017 7.238,5.456 7.018,4.994 6.5559998,4.62 6.094,4.246 5.577,4.07 5.016,4.07 H 3.487 l 0.66,2.64 c 0.088,0.374 0.088,0.374 0.55,0.374 z M 6.402,3.289 C 6.5559998,3.036 6.633,2.783 6.633,2.508 6.633,1.936 6.413,1.441 5.962,1.034 5.511,0.627 5.005,0.429 4.422,0.429 H 2.937 c -0.11,0 -0.187,0 -0.231,0.011 -0.066,0 -0.099,0.022 -0.099,0.055 0,0.011 0,0.044 0.011,0.088 0.3409999,1.397 0.605,2.453 0.781,3.157 h 2.024 c 0.473,0 0.792,-0.154 0.979,-0.451 z"
                       id="path1200"
                       style="fill:#000000" />
                  </g>
                </g>
              </g>
              <g
                 transform="translate(31.3243,7.513)"
                 id="g1280"
                 style="fill:#000000">
                <g
                   class="typst-text"
                   transform="scale(1,-1)"
                   id="g6372"
                   style="fill:#000000">
                  <g
                     id="g9504"
                     style="fill:#000000">
                    <path
                       d="m 0.858,-2.695 c 0.66,0.506 1.21,1.254 1.661,2.255 0.429,0.957 0.649,1.859 0.649,2.728 V 3.212 C 3.168,4.081 2.948,4.983 2.519,5.94 2.068,6.941 1.518,7.689 0.858,8.195 0.825,8.217 0.792,8.228 0.781,8.228 0.682,8.228 0.627,8.173 0.627,8.074 0.627,8.03 0.649,7.986 0.682,7.953 1.254,7.513 1.716,6.787 2.057,5.786 2.354,4.917 2.508,4.059 2.508,3.212 V 2.288 C 2.508,1.441 2.354,0.583 2.057,-0.286 1.716,-1.287 1.254,-2.013 0.682,-2.453 0.649,-2.497 0.627,-2.541 0.627,-2.574 c 0,-0.099 0.055,-0.154 0.154,-0.154 0.011,0 0.044,0.011 0.077,0.033 z"
                       id="path6890"
                       style="fill:#000000" />
                  </g>
                </g>
              </g>
            </g>
          </g>
        </g>
      </g>
      <defs
         id="defs9475" />
    </g>
    <path
       style="opacity:0.5;fill:none;stroke:#000000;stroke-width:0.264999;stroke-dasharray:none;stroke-dashoffset:0"
       d="m 80.085416,52.244061 c 0,0 1.747372,1.335444 3.787177,0.721421 2.039805,-0.614027 2.531308,-2.634668 2.531308,-2.634668"
       id="path20" />
    <g
       id="g8005"
       transform="matrix(0.352778,0,0,0.352778,61.373543,27.324494)"
       ns4:version="1.12.0"
       ns4:texconverter="typst"
       ns4:pdfconverter="inkscape"
       ns4:text="$alpha$"
       ns4:scale="1.0"
       ns4:alignment="middle center"
       ns4:inkscapeversion="1.4.2"
       ns4:jacobian_sqrt="0.352778"
       style="opacity:0.5">
      <g
         id="g4468">
        <g
           transform="translate(70.8661,78.3791)"
           id="g3221">
          <g
             class="typst-text"
             transform="scale(1,-1)"
             id="g6043">
            <g
               id="g6897">
              <path
                 d="M 3.41,4.862 C 2.651,4.862 1.969,4.532 1.364,3.883 0.759,3.234 0.451,2.519 0.451,1.749 c 0,-1.078 0.726,-1.87 1.8039999,-1.87 C 3.014,-0.121 3.762,0.176 4.5099998,0.759 4.675,0.176 5.016,-0.121 5.522,-0.121 c 0.3959997,0 0.957,0.418 0.957,0.814 0,0.099 -0.055,0.14299997 -0.176,0.14299997 C 6.226,0.83599997 6.16,0.792 6.127,0.704 6.039,0.473 5.808,0.198 5.555,0.198 c -0.187,0 -0.286,0.352 -0.286,1.067 0,0.154 0.033,0.275 0.099,0.352 0.297,0.363 0.561,0.781 0.77,1.243 0.275,0.594 0.44,1.034 0.4839997,1.32 V 4.224 C 6.5889997,4.301 6.523,4.334 6.446,4.334 6.391,4.323 6.325,4.235 6.248,4.081 6.017,3.289 5.698,2.6069999 5.269,2.046 v 0.55 c 0,1.276 -0.638,2.266 -1.859,2.266 z M 4.433,2.321 C 4.433,1.6719999 4.444,1.276 4.455,1.133 3.74,0.506 3.014,0.198 2.277,0.198 1.65,0.198 1.342,0.583 1.342,1.342 1.342,1.98 1.705,3.168 1.958,3.564 2.376,4.213 2.86,4.5429997 3.399,4.5429997 3.74,4.5429997 3.971,4.411 4.114,4.147 4.191,4.015 4.246,3.883 4.301,3.762 4.389,3.509 4.433,2.838 4.433,2.321 Z"
                 id="path251" />
            </g>
          </g>
        </g>
      </g>
      <defs
         id="defs7571" />
    </g>
  </g>
</svg>
